<?xml version="1.0" encoding="utf-8"?>
<!-- Generator: Adobe Illustrator 24.2.1, SVG Export Plug-In . SVG Version: 6.00 Build 0)  -->
<svg version="1.1" id="圖層_1" xmlns="http://www.w3.org/2000/svg" xmlns:xlink="http://www.w3.org/1999/xlink" x="0px" y="0px"
	 width="222px" height="70px" viewBox="0 0 222 70" style="enable-background:new 0 0 222 70;" xml:space="preserve">
<style type="text/css">
	.st0{fill:#FFFFFF;}
	.st1{fill:#FFFFFE;}
	.st2{fill:#5F6368;}
	.st3{fill:#4285F4;}
	.st4{fill:#34A853;}
	.st5{fill:#FABB05;}
	.st6{fill:#E94235;}
	.st7{fill:#00C43E;}
	.st8{fill-rule:evenodd;clip-rule:evenodd;fill:#1DA7FC;}
	.st9{fill:#1DA7FC;}
	.st10{fill:#1428A0;}
	.st11{fill:#E60A0F;}
	.st12{fill:#4BDBCA;}
	.st13{fill:#FFFFFF;stroke:#FFFFFF;stroke-width:0.25;stroke-linecap:round;stroke-linejoin:round;stroke-miterlimit:10;}
	.st14{fill:#888888;}
	.st15{fill:#231815;}
	.st16{fill:#E3007F;}
	.st17{fill:#0E9F35;}
	.st18{fill:#007DC5;}
	.st19{fill:#F6B046;}
	.st20{fill:#E74E95;}
	.st21{fill:url(#SVGID_1_);}
	.st22{fill:url(#SVGID_2_);}
	.st23{fill:url(#SVGID_3_);}
	.st24{fill:url(#SVGID_4_);}
	.st25{fill:url(#SVGID_5_);}
	.st26{fill:url(#SVGID_6_);}
	.st27{fill:url(#SVGID_7_);}
	.st28{fill:url(#SVGID_8_);}
	.st29{fill:url(#SVGID_9_);}
	.st30{fill:url(#SVGID_10_);}
	.st31{fill:url(#SVGID_11_);}
	.st32{fill:url(#SVGID_12_);}
	.st33{fill:url(#SVGID_13_);}
	.st34{fill:url(#SVGID_14_);}
	.st35{fill:url(#SVGID_15_);}
	.st36{fill:#6FBDD9;}
	.st37{fill:#EB9D14;}
	.st38{fill:#2CADB1;}
</style>
<g>
	<g>
		<path class="st0" d="M30,19H2c-0.55,0-1-0.45-1-1V2c0-0.552,0.448-1,1-1h28c0.55,0,1,0.45,1,1v16C31,18.55,30.55,19,30,19z"/>
		<path d="M30,1c0.55,0,1,0.45,1,1v16c0,0.55-0.45,1-1,1H2c-0.55,0-1-0.45-1-1V2c0-0.552,0.448-1,1-1H30 M30,0H2
			C0.897,0,0,0.897,0,2v16c0,1.103,0.897,2,2,2h28c1.103,0,2-0.897,2-2V2C32,0.897,31.103,0,30,0L30,0z"/>
	</g>
	<g id="XMLID_34_">
		<g id="XMLID_44_">
			<path id="XMLID_46_" d="M8.45,6.459c0.271-0.331,0.455-0.776,0.407-1.231C8.46,5.248,7.976,5.485,7.695,5.816
				C7.443,6.1,7.22,6.563,7.278,6.999C7.724,7.037,8.169,6.781,8.45,6.459"/>
			<path id="XMLID_45_" d="M8.852,7.084C8.205,7.046,7.654,7.442,7.345,7.442c-0.309,0-0.783-0.34-1.295-0.331
				c-0.666,0.01-1.285,0.377-1.623,0.963c-0.696,1.17-0.184,2.907,0.493,3.86c0.329,0.472,0.724,0.991,1.246,0.972
				c0.493-0.019,0.686-0.312,1.285-0.312c0.599,0,0.773,0.312,1.294,0.302c0.541-0.009,0.879-0.472,1.208-0.944
				c0.377-0.538,0.531-1.057,0.541-1.085c-0.01-0.009-1.043-0.397-1.053-1.557c-0.01-0.972,0.811-1.434,0.85-1.463
				C9.828,7.178,9.103,7.103,8.852,7.084"/>
		</g>
		<g id="XMLID_35_">
			<path id="XMLID_41_" d="M15.307,5.769c1.407,0,2.387,0.947,2.387,2.325c0,1.384-1,2.335-2.422,2.335h-1.558v2.419h-1.126V5.769
				H15.307z M13.714,9.507h1.292c0.98,0,1.538-0.515,1.538-1.408c0-0.893-0.558-1.403-1.533-1.403h-1.297V9.507z"/>
			<path id="XMLID_38_" d="M17.973,11.381c0-0.908,0.709-1.428,2.015-1.506l1.402-0.083V9.399c0-0.574-0.387-0.888-1.075-0.888
				c-0.568,0-0.98,0.285-1.065,0.721h-1.015c0.03-0.917,0.915-1.585,2.111-1.585c1.286,0,2.126,0.657,2.126,1.678v3.522h-1.04
				v-0.849h-0.025c-0.297,0.554-0.95,0.903-1.658,0.903C18.702,12.902,17.973,12.294,17.973,11.381z M21.39,10.925v-0.397
				l-1.251,0.079c-0.704,0.044-1.07,0.299-1.07,0.746c0,0.432,0.382,0.711,0.98,0.711C20.812,12.063,21.39,11.587,21.39,10.925z"/>
			<path id="XMLID_36_" d="M23.427,14.742v-0.849c0.07,0.01,0.241,0.019,0.332,0.019c0.498,0,0.779-0.206,0.95-0.736l0.101-0.314
				l-1.905-5.151h1.176l1.327,4.18h0.025l1.327-4.18h1.146l-1.975,5.411c-0.452,1.241-0.97,1.648-2.065,1.648
				C23.779,14.771,23.502,14.761,23.427,14.742z"/>
		</g>
	</g>
</g>
<g>
	<g>
		<path class="st1" d="M65,19H37c-0.55,0-1-0.45-1-1V2c0-0.552,0.448-1,1-1h28c0.55,0,1,0.45,1,1v16C66,18.55,65.55,19,65,19z"/>
		<path class="st2" d="M65,1c0.55,0,1,0.45,1,1v16c0,0.55-0.45,1-1,1H37c-0.55,0-1-0.45-1-1V2c0-0.552,0.448-1,1-1H65 M65,0H37
			c-1.103,0-2,0.897-2,2v16c0,1.103,0.897,2,2,2h28c1.103,0,2-0.897,2-2V2C67,0.897,66.103,0,65,0L65,0z"/>
	</g>
	<g>
		<path class="st2" d="M50.363,6.996V9.36h1.455c0.347,0,0.634-0.117,0.86-0.35c0.233-0.233,0.349-0.511,0.349-0.832
			c0-0.315-0.116-0.59-0.349-0.823c-0.227-0.24-0.513-0.359-0.86-0.359L50.363,6.996L50.363,6.996L50.363,6.996z M50.363,10.193
			v2.743h-0.87V6.164H51.8c0.586,0,1.084,0.196,1.493,0.586c0.416,0.391,0.624,0.867,0.624,1.428c0,0.574-0.208,1.053-0.624,1.437
			C52.89,10,52.392,10.192,51.8,10.192L50.363,10.193L50.363,10.193z M54.796,11.517c0,0.227,0.096,0.416,0.289,0.568
			c0.192,0.151,0.417,0.227,0.676,0.227c0.366,0,0.691-0.136,0.978-0.407c0.287-0.271,0.43-0.59,0.43-0.955
			c-0.271-0.215-0.649-0.321-1.134-0.321c-0.353,0-0.647,0.085-0.883,0.255C54.914,11.054,54.796,11.264,54.796,11.517 M55.921,8.15
			c0.643,0,1.15,0.172,1.522,0.515C57.814,9.009,58,9.48,58,10.079v2.856h-0.832v-0.643h-0.038
			c-0.359,0.529-0.838,0.794-1.437,0.794c-0.51,0-0.938-0.151-1.281-0.454c-0.343-0.302-0.515-0.681-0.515-1.135
			c0-0.479,0.181-0.86,0.543-1.144c0.362-0.284,0.846-0.426,1.451-0.426c0.516,0,0.942,0.095,1.276,0.284v-0.199
			c0-0.302-0.12-0.559-0.359-0.771c-0.23-0.208-0.531-0.321-0.841-0.317c-0.485,0-0.869,0.205-1.153,0.615l-0.766-0.483
			C54.471,8.453,55.095,8.15,55.921,8.15 M62.773,8.301l-2.902,6.677h-0.898l1.077-2.336l-1.909-4.341h0.945l1.38,3.329h0.019
			l1.342-3.329H62.773z"/>
		<path class="st3" d="M46.85,9.601c0-0.274-0.023-0.538-0.067-0.791h-3.668v1.499h2.101c-0.087,0.483-0.367,0.911-0.777,1.182
			v0.973h1.253C46.427,11.787,46.85,10.786,46.85,9.601"/>
		<path class="st4" d="M43.115,13.404c1.05,0,1.933-0.345,2.578-0.939l-1.253-0.973c-0.349,0.235-0.798,0.373-1.324,0.373
			c-1.014,0-1.875-0.684-2.183-1.606h-1.291v1.003C40.301,12.574,41.645,13.403,43.115,13.404"/>
		<path class="st5" d="M40.932,10.257c-0.162-0.483-0.162-1.006,0-1.489V7.765h-1.291c-0.273,0.542-0.415,1.141-0.414,1.748
			c0,0.628,0.149,1.222,0.414,1.747L40.932,10.257L40.932,10.257z"/>
		<path class="st6" d="M43.115,7.162c0.573,0,1.087,0.197,1.492,0.583v0.001l1.11-1.111c-0.674-0.628-1.553-1.014-2.601-1.014
			c-1.47,0-2.815,0.83-3.475,2.144l1.291,1.003C41.24,7.846,42.101,7.162,43.115,7.162"/>
	</g>
</g>
<g id="LINE_Pay">
	<g>
		<g>
			<g>
				<path d="M81.147,4.292h-1.658c-0.276,0-0.461,0.183-0.461,0.457V15.16c0,0.274,0.184,0.457,0.461,0.457h1.658
					c0.276,0,0.461-0.183,0.461-0.457V4.749C81.607,4.475,81.331,4.292,81.147,4.292z"/>
				<path d="M77.093,12.968h-4.514V4.749c0-0.274-0.184-0.457-0.461-0.457h-1.658C70.184,4.292,70,4.475,70,4.749V15.16
					c0,0.274,0.184,0.457,0.461,0.457h6.633c0.276,0,0.461-0.183,0.461-0.457v-1.644C77.554,13.242,77.278,12.968,77.093,12.968z"/>
				<path d="M102.059,6.941c0.276,0,0.461-0.183,0.461-0.457V4.84c0-0.274-0.184-0.457-0.461-0.457h-6.633
					c-0.276,0-0.461,0.183-0.461,0.457v10.411c0,0.274,0.184,0.457,0.461,0.457h6.633c0.276,0,0.461-0.183,0.461-0.457v-1.644
					c0-0.274-0.184-0.457-0.461-0.457h-4.514v-1.735h4.514c0.276,0,0.461-0.183,0.461-0.457V9.315c0-0.274-0.184-0.457-0.461-0.457
					h-4.514V7.123h4.514V6.941z"/>
				<path d="M92.662,4.292h-1.658c-0.276,0-0.461,0.183-0.461,0.457v6.027l-4.422-6.21c-0.092-0.183-0.276-0.183-0.553-0.183h-0.092
					h-1.658c-0.276,0-0.461,0.183-0.461,0.457v10.411c0,0.274,0.184,0.457,0.461,0.457h1.658c0.276,0,0.461-0.183,0.461-0.457V8.95
					l4.606,6.484c0,0,0,0,0.092,0.091c0.092,0.091,0.184,0.183,0.368,0.183h0.092h1.658c0.276,0,0.461-0.183,0.461-0.457V4.749
					C93.123,4.475,92.939,4.292,92.662,4.292z"/>
			</g>
		</g>
		<g>
			<path class="st7" d="M137.802,0h-29.756c-0.645,0-1.198,0.548-1.198,1.187v17.626c0,0.639,0.553,1.187,1.198,1.187h29.756
				c0.645,0,1.198-0.548,1.198-1.187V1.096C139,0.457,138.447,0,137.802,0z M115.232,11.05h-1.29v2.557
				c0,0.183-0.184,0.365-0.368,0.365h-1.658c-0.184,0-0.368-0.183-0.368-0.365V4.84c0-0.183,0.184-0.365,0.368-0.365h3.316
				c1.935,0,3.409,1.461,3.409,3.288C118.549,9.589,117.075,11.05,115.232,11.05z M126.287,13.973h-1.842
				c-0.092,0-0.184-0.091-0.184-0.183v-0.274c-0.461,0.457-1.105,0.639-1.842,0.639c-1.842,0-3.316-1.553-3.316-3.562
				s1.474-3.562,3.316-3.562c0.737,0,1.382,0.183,1.842,0.639V7.397c0-0.091,0.092-0.183,0.184-0.183h1.842
				c0.092,0,0.184,0.091,0.184,0.183v6.393C126.471,13.881,126.379,13.973,126.287,13.973z M131.354,16.621h-1.842
				c-0.092,0-0.276-0.183-0.184-0.274l1.013-2.466l-2.672-6.484c-0.092-0.091,0-0.274,0.184-0.274h1.842
				c0.092,0,0.184,0.091,0.276,0.183l1.474,3.653l1.474-3.653c0-0.091,0.184-0.183,0.276-0.183h1.842
				c0.092,0,0.276,0.183,0.184,0.274l-3.593,9.041C131.63,16.53,131.538,16.621,131.354,16.621z"/>
			<path class="st7" d="M122.786,9.041c-0.921,0-1.474,0.639-1.474,1.461c0,0.913,0.553,1.461,1.474,1.461s1.474-0.639,1.474-1.461
				C124.26,9.589,123.708,9.041,122.786,9.041z"/>
			<path class="st7" d="M115.232,6.667h-1.29v2.192h1.29c0.553,0,1.013-0.457,1.013-1.096
				C116.246,7.123,115.785,6.667,115.232,6.667z"/>
		</g>
	</g>
</g>
<g>
	<g>
		<path class="st8" d="M196.654,20h-53.286c-1.84,0-3.346-1.612-3.346-3.396L140,3.244C140,1.46,141.506,0,143.346,0h53.286
			c1.84,0,3.346,1.498,3.346,3.282L200,16.756C200,18.54,198.494,20,196.654,20z"/>
	</g>
	<g>
		<g>
			<g>
				<g>
					<path class="st0" d="M165.696,10.146c-0.004-0.093-0.084-0.19-0.156-0.221c-0.025-0.011-0.066-0.024-0.121-0.024
						c-0.055,0-0.113,0.013-0.172,0.039l-0.921,0.421l-0.092,0.042l0.007-0.099l0.139-1.917l0.004-0.055l0.056,0.001l0.696,0.008
						c0.321-0.002,0.608-0.202,0.73-0.509c0.007-0.019,0.023-0.067,0.025-0.089c0.006-0.05-0.008-0.096-0.039-0.13
						c-0.03-0.033-0.074-0.052-0.124-0.052h0c-0.148,0-1.198,0.016-1.208,0.016l-0.067,0.001l0.006-0.064
						c0.002-0.024,0.24-2.432,0.243-2.469c0-0.1-0.088-0.185-0.195-0.185c-0.012,0-0.024,0.001-0.036,0.003
						c-0.349,0.077-0.621,0.361-0.673,0.707c-0.007,0.048-0.13,1.428-0.176,1.955l-0.005,0.053l-0.055,0l-1.416-0.011
						c-0.188,0-0.389,0.131-0.407,0.38c-0.008,0.11,0.028,0.216,0.1,0.29c0.068,0.071,0.162,0.108,0.271,0.108l1.373-0.011
						l0.065-0.001l-0.005,0.063l-0.185,2.308l-0.003,0.037l-0.036,0.013c-0.429,0.149-0.862,0.283-1.321,0.424l-0.22,0.068
						c-0.191,0.056-0.317,0.2-0.33,0.377c-0.008,0.112,0.028,0.216,0.101,0.292c0.052,0.054,0.147,0.119,0.306,0.119
						c0.122,0,0.278-0.038,1.353-0.425l0.087-0.031l-0.006,0.09l-0.157,2.177c-0.043,0.424-0.251,0.509-0.572,0.509
						c-0.165,0-0.349-0.029-0.561-0.062l-0.148-0.013c-0.232,0-0.389,0.206-0.404,0.406c-0.007,0.093-0.002,0.211,0.092,0.309
						c0.136,0.141,0.428,0.201,0.978,0.201c1.145,0,1.435-0.683,1.476-1.255l0.003-0.042c0.019-0.434,0.049-1.036,0.064-1.239
						c0.004-0.056,0.011-0.133,0.02-0.236l0.001-0.014c0.021-0.233,0.051-0.582,0.091-1.128l0.003-0.036l0.034-0.014
						c0.43-0.171,1.06-0.446,1.124-0.484C165.548,10.615,165.705,10.357,165.696,10.146z"/>
					<path class="st0" d="M171.982,12.9c0.02-0.1,0.107-1.21,0.16-1.938c0.023-0.312,0.046-0.626,0.07-0.936
						c0.069-0.914,0.135-1.777,0.154-2.405c0.01-0.302-0.088-0.569-0.283-0.774c-0.249-0.261-0.64-0.411-1.131-0.433l-0.072-0.005
						c-0.092-0.007-0.1-0.008-1.011-0.008h-0.096l0.043-0.084c0.101-0.197,0.301-0.585,0.446-0.866
						c0.095-0.184,0.166-0.322,0.17-0.331c0.022-0.05,0.017-0.12-0.014-0.175c-0.021-0.038-0.062-0.086-0.141-0.1
						c-0.033-0.006-0.069-0.009-0.106-0.009c-0.312,0-0.74,0.213-0.918,0.57l-0.049,0.098c-0.11,0.22-0.248,0.494-0.403,0.861
						l-0.015,0.036l-0.04,0c-0.032,0-0.116,0.002-0.218,0.004c-0.194,0.004-0.45,0.008-0.524,0.008
						c-0.804,0.026-1.409,0.521-1.472,1.205c-0.032,0.376-0.073,0.813-0.117,1.274c-0.069,0.733-0.148,1.565-0.2,2.276
						c-0.067,0.928-0.121,1.856-0.171,2.727c-0.019,0.352,0.08,0.655,0.285,0.876c0.243,0.261,0.626,0.407,1.138,0.433
						c0.233,0.008,0.748,0.008,1.114,0.008l0.441,0l0.272,0l0.021-0.004C170.651,15.141,171.747,14.192,171.982,12.9z
						 M167.151,10.239c0.028-0.379,0.078-0.864,0.131-1.377c0.035-0.343,0.071-0.691,0.101-1.011
						c0.043-0.432,0.343-0.686,0.822-0.697c0.113-0.004,0.395-0.005,0.838-0.005c0.762,0,1.735,0.005,1.735,0.005
						c0.452,0,0.691,0.234,0.691,0.676c0,0.109-0.058,0.888-0.109,1.575c-0.025,0.338-0.048,0.65-0.061,0.842l-0.004,0.054h-0.056
						h-4.029h-0.064L167.151,10.239z M168.958,14.348l-0.238,0.003c-0.294,0.003-0.536,0.006-0.736,0.006
						c-0.601,0-0.834-0.023-0.944-0.15c-0.093-0.108-0.129-0.258-0.117-0.486c0.028-0.711,0.081-1.634,0.149-2.599l0.004-0.054
						h0.056h4.042h0.063l-0.003,0.061c-0.003,0.058-0.082,1.43-0.145,1.759C170.903,13.732,170.007,14.346,168.958,14.348z"/>
				</g>
				<g>
					<path class="st0" d="M179.912,9.614c0.044,0,0.087-0.003,0.127-0.009c0.365-0.053,0.85-0.226,1.48-0.527l0.04-0.019l0.03,0.032
						c0.554,0.577,1.18,0.908,1.719,0.908c1.27,0,1.477-1.446,1.478-1.46c0.007-0.097-0.028-0.19-0.098-0.263
						c-0.081-0.084-0.201-0.135-0.321-0.135c-0.141,0-0.315,0.092-0.363,0.293c-0.114,0.418-0.221,0.811-0.684,0.811
						c-0.254,0-0.661-0.205-0.992-0.497l-0.056-0.049l0.062-0.041c0.047-0.031,0.08-0.052,0.11-0.071
						c0.071-0.045,0.121-0.077,0.281-0.197c0.618-0.469,0.706-0.648,0.714-0.751c0.007-0.094-0.029-0.189-0.099-0.261
						c-0.069-0.072-0.164-0.113-0.261-0.113c-0.121,0-0.21,0.068-0.266,0.119c-0.354,0.371-0.535,0.496-0.965,0.758l-0.049,0.03
						l-0.032-0.047c-0.187-0.27-0.355-0.597-0.512-0.999l-0.027-0.07l0.076-0.009c0.824-0.093,2.396-0.27,2.447-0.278
						c0.27-0.052,0.463-0.21,0.543-0.444c0.018-0.053,0.039-0.128,0.04-0.166c0.001-0.043-0.012-0.078-0.036-0.103
						c-0.025-0.025-0.061-0.038-0.103-0.038c-0.007,0-0.015,0-0.022,0.001l-0.875,0.103l-0.138,0.016l0.082-0.108
						c0.047-0.062,0.074-0.132,0.079-0.205c0.007-0.1-0.038-0.202-0.135-0.302c-0.297-0.308-1.059-0.564-1.254-0.564
						c-0.206,0-0.391,0.147-0.404,0.32c-0.009,0.12,0.057,0.212,0.185,0.26c0.453,0.164,0.749,0.33,0.991,0.557l0.09,0.085
						l-0.124,0.015l-1.613,0.189l-0.051,0.006l-0.014-0.048c-0.095-0.34-0.186-0.72-0.277-1.163
						c-0.031-0.169-0.172-0.281-0.351-0.281c-0.189,0-0.402,0.132-0.418,0.344c-0.007,0.096,0.107,0.637,0.258,1.165l0.018,0.064
						l-0.068,0.009l-0.892,0.116c-0.225,0.018-0.338,0.191-0.349,0.344c-0.007,0.09,0.023,0.174,0.083,0.237
						c0.045,0.046,0.127,0.101,0.267,0.101l1.13-0.125l0.047-0.005l0.016,0.043c0.174,0.469,0.387,0.895,0.631,1.266l0.037,0.057
						l-0.064,0.027c-0.555,0.237-1.587,0.461-1.767,0.495c-0.088,0.017-0.145,0.043-0.166,0.076
						c-0.015,0.025-0.014,0.059,0.006,0.12C179.208,9.461,179.596,9.614,179.912,9.614z"/>
					<path class="st0" d="M178.644,7.477c-0.396-0.501-1.052-1.571-1.179-1.78c-0.224-0.368-0.47-0.539-0.776-0.539
						c-0.29,0-0.572,0.18-0.796,0.507c-0.482,0.704-1.07,1.536-1.776,2.363c-0.098,0.115-0.148,0.207-0.154,0.283
						c-0.006,0.09,0.025,0.175,0.088,0.241c0.074,0.077,0.187,0.121,0.309,0.121c0.143,0,0.275-0.059,0.362-0.161
						c0.046-0.052,0.11-0.126,0.188-0.219l0.055-0.065l0.043,0.073c0.012,0.021,0.026,0.039,0.042,0.055
						c0.044,0.046,0.127,0.101,0.269,0.101l0.649-0.01l0.065-0.001l-0.005,0.063l-0.077,1.059l-0.004,0.054l-0.056,0l-1.433-0.011
						c-0.214,0-0.355,0.175-0.368,0.344c-0.007,0.098,0.023,0.188,0.085,0.253c0.043,0.044,0.121,0.097,0.252,0.097l1.406-0.011
						l0.065,0l-0.005,0.062l-0.234,3.246l-0.003,0.04l-0.039,0.012c-0.562,0.166-1.174,0.313-1.772,0.425
						c-0.208,0.04-0.352,0.188-0.365,0.379c-0.008,0.111,0.029,0.219,0.102,0.295c0.051,0.053,0.142,0.115,0.291,0.115
						c0.306,0,2.755-0.613,4.02-1.206c0.264-0.124,0.545-0.388,0.469-0.726c-0.008-0.036-0.031-0.08-0.035-0.088
						c-0.025-0.048-0.092-0.082-0.163-0.082c-0.03,0-0.061,0.006-0.091,0.017c-0.243,0.094-1.071,0.413-1.534,0.575l-0.086,0.03
						l0.006-0.089l0.213-2.945l0.004-0.054l0.056,0.001c0,0,0.519,0.005,0.833,0.005c0.105,0,0.187-0.001,0.218-0.002
						c0.216-0.011,0.412-0.117,0.536-0.292c0.053-0.074,0.107-0.183,0.109-0.26c0.001-0.036-0.013-0.07-0.04-0.097
						c-0.028-0.027-0.066-0.043-0.105-0.043l-1.495,0.009l-0.065,0l0.005-0.062l0.076-1.057l0.004-0.055l0.057,0.001
						c0,0,0.346,0.006,0.513,0.006l0.056,0c0.254-0.004,0.449-0.206,0.529-0.403l0.009-0.021l0.033-0.076l0.063,0.056
						c0.059,0.053,0.145,0.087,0.219,0.087c0.213,0,0.406-0.18,0.421-0.392C178.717,7.622,178.694,7.544,178.644,7.477z
						 M177.751,7.791c-0.03-0.009-0.054-0.014-0.184-0.016h-2.118h-0.118l0.07-0.092c0.4-0.529,0.758-1.046,1.093-1.579
						c0.075-0.119,0.137-0.18,0.184-0.18c0.053,0,0.122,0.068,0.186,0.181c0.474,0.821,0.767,1.319,0.956,1.598l0.091,0.135
						L177.751,7.791z"/>
					<path class="st0" d="M178.329,10.821c-0.042-0.019-0.095-0.028-0.158-0.028c-0.059,0-0.117,0.009-0.156,0.015
						c-0.238,0.04-0.442,0.183-0.547,0.382l-0.032,0.06c-0.106,0.203-0.355,0.677-0.476,0.874c-0.053,0.087-0.08,0.169-0.083,0.209
						c-0.006,0.085,0.022,0.164,0.08,0.224c0.063,0.066,0.155,0.102,0.258,0.102c0.109,0,0.219-0.052,0.31-0.148
						c0.096-0.106,0.385-0.588,0.86-1.432l0.028-0.05c0.018-0.033,0.021-0.072,0.008-0.109
						C178.406,10.877,178.373,10.841,178.329,10.821z"/>
					<path class="st0" d="M174.484,12.316c0.106,0.409,0.166,0.638,0.177,0.68c0.032,0.114,0.148,0.156,0.217,0.156
						c0.017,0,0.032-0.002,0.045-0.006c0.331-0.108,0.455-0.49,0.406-0.811c-0.031-0.202-0.436-1.135-0.538-1.267
						c-0.058-0.077-0.163-0.122-0.281-0.122c-0.228,0-0.402,0.13-0.415,0.308c-0.003,0.038,0.009,0.104,0.04,0.157
						c0.098,0.206,0.235,0.52,0.339,0.869l-0.001,0C174.478,12.291,174.481,12.303,174.484,12.316z"/>
					<path class="st0" d="M179.376,14.786c0.026,0,0.052-0.001,0.077-0.005c0.338-0.043,0.731-0.219,1.611-0.64l0.043-0.02
						l0.03,0.036c0.552,0.657,1.268,1.064,1.868,1.064c0.186,0,0.365-0.038,0.53-0.114c0.208-0.095,0.512-0.277,0.76-0.762
						c0.19-0.371,0.28-0.62,0.302-0.834c0.011-0.109-0.024-0.216-0.096-0.293c-0.073-0.078-0.18-0.121-0.301-0.121l-0.018,0
						c-0.142,0.005-0.237,0.083-0.309,0.255c-0.018,0.042-0.035,0.086-0.053,0.13c-0.102,0.255-0.218,0.545-0.442,0.818
						c-0.12,0.147-0.264,0.166-0.375,0.166c-0.264,0-0.73-0.214-1.178-0.693l-0.046-0.049l0.057-0.038
						c0.137-0.091,0.3-0.206,0.458-0.318l0.143-0.101c0.546-0.385,0.792-0.7,0.89-0.853c0.037-0.058,0.055-0.164-0.019-0.22
						c-0.026-0.02-0.103-0.043-0.234-0.043c-0.182,0-0.426,0.046-0.562,0.15c-0.053,0.041-0.153,0.118-0.271,0.211
						c-0.288,0.226-0.681,0.534-0.819,0.624l-0.053,0.034l-0.032-0.054c-0.168-0.284-0.322-0.605-0.458-0.955
						c-0.034-0.089-0.068-0.179-0.1-0.272l-0.024-0.068l0.074-0.008c0.026-0.003,2.611-0.278,2.816-0.325
						c0.142-0.032,0.266-0.098,0.359-0.189c0.176-0.175,0.204-0.356,0.208-0.407c0.003-0.038-0.007-0.07-0.029-0.093
						c-0.028-0.029-0.073-0.046-0.124-0.046c-0.028,0.002-1.055,0.12-1.594,0.183l-0.132,0.015l0.076-0.106
						c0.04-0.056,0.131-0.346-0.059-0.542c-0.148-0.153-0.473-0.413-0.981-0.44c-0.011-0.001-0.022-0.001-0.033-0.001
						c-0.205,0-0.387,0.102-0.475,0.204c-0.048,0.055-0.071,0.11-0.064,0.152c0.022,0.126,0.198,0.224,0.273,0.265l0.017,0.01
						c0.015,0.009,0.045,0.025,0.086,0.047c0.146,0.078,0.416,0.225,0.648,0.367l0.142,0.087l-0.167,0.019l-1.175,0.136
						l-0.052,0.006l-0.013-0.05l-0.056-0.218c-0.055-0.217-0.101-0.41-0.14-0.589l-0.007-0.032l-0.011-0.048
						c-0.032-0.168-0.173-0.279-0.351-0.279c-0.11,0-0.224,0.044-0.304,0.118c-0.057,0.052-0.095,0.117-0.108,0.188
						c-0.002,0.012-0.004,0.025-0.005,0.038l-0.001,0.01l0.001,0.009l0.009,0.055l0.009,0.051l0.004,0.024l0.009,0.046l0.009,0.048
						l0.014,0.068l0.011,0.053c0.007,0.035,0.015,0.072,0.024,0.111l0.008,0.038c0.026,0.115,0.058,0.246,0.096,0.387l0.017,0.063
						l-0.067,0.009l-0.469,0.06c-0.21,0.025-0.451,0.208-0.518,0.392c-0.033,0.092-0.018,0.171,0.045,0.233
						c0.055,0.055,0.133,0.08,0.243,0.08c0.047,0,0.099-0.004,0.169-0.014c0.214-0.029,0.734-0.087,0.739-0.088l0.05-0.006
						l0.014,0.047c0.158,0.523,0.499,1.211,0.69,1.532l0.031,0.053l-0.056,0.028c-0.539,0.271-1.567,0.59-1.917,0.69
						c-0.072,0.02-0.118,0.087-0.109,0.158C178.644,14.57,179.042,14.786,179.376,14.786z"/>
				</g>
				<g>
					<path class="st0" d="M192.662,12.63c0.36,0.096,0.656,0.14,0.929,0.14c0.829,0,1.421-0.381,1.81-1.166
						c0.33-0.667,0.525-1.62,0.631-3.091c0.03-0.418,0.059-0.812,0.072-1.174c0.019-0.347-0.084-0.644-0.297-0.862
						c-0.228-0.232-0.571-0.36-0.967-0.36h-5.121h-0.11l0.059-0.089c0.282-0.426,0.455-0.734,0.461-0.825
						c0.007-0.099-0.031-0.197-0.108-0.277c-0.094-0.098-0.238-0.159-0.374-0.159c-0.172,0-0.319,0.09-0.403,0.247
						c-0.903,1.702-2.295,3.085-3.045,3.757c-0.027,0.024-0.097,0.087-0.108,0.115c-0.016,0.043-0.018,0.131,0.045,0.181
						c0.135,0.109,0.315,0.169,0.508,0.169c0.202,0,0.39-0.065,0.53-0.184c0.144-0.122,1.636-1.827,1.878-2.146l0.018-0.023l0.03,0
						c0.832-0.011,5.49-0.011,5.537-0.011c0.204,0,0.357,0.051,0.456,0.151c0.1,0.101,0.145,0.246,0.135,0.431
						c-0.166,3.055-0.672,4.478-1.594,4.478c-0.099,0-0.256-0.038-0.423-0.079c-0.168-0.041-0.342-0.083-0.446-0.083
						c-0.192,0.004-0.399,0.133-0.418,0.405C192.331,12.385,192.461,12.573,192.662,12.63z"/>
					<path class="st0" d="M192.91,8.734c-0.093-0.142-0.288-0.436-0.997-0.438l-0.438-0.001c-0.537-0.001-1.287-0.003-1.9-0.003
						c-0.522,0-0.857,0.001-0.994,0.003c-0.287,0.005-0.465,0.158-0.488,0.421c0,0-0.296,3.946-0.359,4.82
						c-0.05,0.88,0.544,1.502,1.514,1.583c0.986,0.08,1.715,0.113,2.514,0.113c1.028,0,2.065-0.052,3-0.151
						c0.95-0.105,1.566-0.518,1.832-1.225c0.145-0.386,0.212-0.626,0.287-1.027l0.004-0.021c0.014-0.089,0.065-0.419,0.082-0.61
						c0.005-0.058-0.013-0.115-0.051-0.156c-0.024-0.026-0.067-0.058-0.134-0.06l-0.022,0c-0.39,0-0.759,0.345-0.823,0.77
						c-0.153,1.021-0.489,1.418-1.285,1.516c-0.815,0.095-1.91,0.149-3.004,0.149c-0.766,0-1.441-0.031-2.189-0.1
						c-0.575-0.053-0.877-0.356-0.852-0.851c0.035-0.487,0.152-1.765,0.153-1.778l0.005-0.053l0.055,0.001
						c0.009,0,0.866,0.01,1.551,0.01c0.399,0,0.663-0.003,0.784-0.01c0.822-0.046,1.807-0.486,1.875-1.575l0.006-0.091
						c0.022-0.307,0.069-0.945-0.113-1.214L192.91,8.734z M192.219,9.813c-0.001,0.027-0.002,0.052-0.002,0.072
						c-0.008,0.456-0.465,0.972-1.189,1.01c-0.182,0.01-0.439,0.014-0.762,0.014c-0.656,0-1.377-0.02-1.384-0.02l-0.062-0.002
						l0.004-0.06l0.126-1.74l0.004-0.053l0.055-0.001l0.052,0c0.406,0,2.494,0.009,2.767,0.032
						C192.245,9.1,192.227,9.581,192.219,9.813z"/>
				</g>
			</g>
			<g>
				<g>
					<path class="st8" d="M143.487,13.851c0,1.54,1.292,2.793,2.881,2.793h7.943c1.588,0,2.881-1.253,2.881-2.793V6.149
						c0-1.54-1.292-2.793-2.881-2.793h-7.943c-1.588,0-2.881,1.253-2.881,2.793V13.851z"/>
				</g>
				<path class="st0" d="M154.311,2.893h-7.943c-1.852,0-3.359,1.461-3.359,3.257v7.701c0,1.796,1.507,3.257,3.359,3.257h7.943
					c1.852,0,3.359-1.461,3.359-3.257V6.149C157.67,4.354,156.163,2.893,154.311,2.893z"/>
				<g>
					<g>
						<path class="st9" d="M153.95,9.355c0.013,0,0.026,0.001,0.038,0.002c-0.016-0.001-0.031-0.002-0.046-0.002
							c-0.582,0-1.096,0.458-1.147,1.022l-0.247,3.402c-0.016,0.179,0.12,0.324,0.305,0.324c-0.013,0-0.026-0.001-0.038-0.002
							c0.016,0.001,0.031,0.002,0.046,0.002c0.582,0,1.096-0.458,1.147-1.022l0.247-3.402C154.27,9.5,154.134,9.355,153.95,9.355z"
							/>
					</g>
					<g>
						<path class="st9" d="M154.713,7.32c0,0.472-0.395,0.855-0.882,0.855c-0.487,0-0.881-0.383-0.881-0.855
							c0-0.472,0.395-0.855,0.881-0.855C154.318,6.466,154.713,6.848,154.713,7.32z"/>
					</g>
					<g>
						<g>
							<path class="st9" d="M149.22,5.907h-1.236h-1.068c-0.184,0-0.344,0.145-0.357,0.324l-0.592,7.549
								c-0.012,0.166,0.108,0.303,0.273,0.321c0.017,0.001,0.034,0.002,0.051,0.002c0.582,0,1.087-0.458,1.128-1.022l0.172-1.736
								l0.001-0.015h0.001c-0.001,0.005-0.002,0.01-0.002,0.015c0.013-0.179,0.173-0.324,0.357-0.324h0.903
								c1.457,0,2.72-1.145,2.822-2.557C151.775,7.052,150.677,5.907,149.22,5.907z M150.272,8.464
								c-0.048,0.662-0.64,1.199-1.323,1.199l0,0.002h-0.903c-0.184,0-0.323-0.145-0.31-0.324l0-0.004l0.112-1.552l0.014-0.193
								c0-0.001,0-0.003,0-0.004l0-0.001c0.013-0.178,0.173-0.323,0.357-0.323h0.903C149.805,7.265,150.32,7.802,150.272,8.464z"/>
						</g>
						<polygon class="st0" points="147.862,7.588 147.862,7.593 147.862,7.593 						"/>
					</g>
				</g>
			</g>
		</g>
	</g>
</g>
<g>
	<path class="st10" d="M30.773,45H1.227C0.549,45,0,44.451,0,43.773V26.227C0,25.549,0.549,25,1.227,25h29.546
		C31.451,25,32,25.549,32,26.227v17.546C32,44.451,31.451,45,30.773,45z"/>
	<g>
		<g>
			<g>
				<g>
					<path class="st0" d="M9.286,41.261v-5.66h0.917c0,0,0,0.227,0,0.416c0.127-0.202,0.374-0.347,0.567-0.411
						c0.194-0.064,0.396-0.097,0.599-0.097c0.508,0,1.05,0.17,1.49,0.625c0.407,0.42,0.622,0.932,0.622,1.536
						c0,0.277-0.054,0.55-0.161,0.813c-0.102,0.264-0.25,0.495-0.44,0.688c-0.2,0.208-0.428,0.367-0.678,0.472
						c-0.25,0.106-0.484,0.159-0.79,0.159c-0.222,0-0.438-0.035-0.642-0.104c-0.2-0.065-0.481-0.225-0.581-0.398v1.961H9.286z
						 M11.34,36.311c-0.335,0-0.626,0.104-0.865,0.348c-0.245,0.254-0.339,0.616-0.339,0.976c0,0.385,0.092,0.759,0.331,1.013
						c0.24,0.255,0.536,0.344,0.881,0.344c0.349,0,0.634-0.142,0.849-0.359c0.248-0.25,0.366-0.591,0.366-0.956
						c0-0.4-0.118-0.755-0.358-1.008C11.997,36.451,11.699,36.311,11.34,36.311z"/>
					<polygon class="st0" points="19.771,41.261 20.545,39.475 18.769,35.601 19.736,35.601 20.999,38.509 22.163,35.601 
						23.135,35.601 20.721,41.261 					"/>
				</g>
			</g>
		</g>
		<path class="st0" d="M17.313,39.727c0,0,0-0.306,0-0.427c-0.101,0.174-0.382,0.334-0.581,0.398
			c-0.204,0.069-0.42,0.104-0.642,0.104c-0.306,0-0.54-0.054-0.79-0.159c-0.25-0.106-0.478-0.265-0.678-0.472
			c-0.19-0.193-0.338-0.424-0.44-0.688c-0.107-0.263-0.161-0.536-0.161-0.813c0-0.604,0.215-1.116,0.622-1.536
			c0.44-0.454,0.982-0.625,1.49-0.625c0.204,0,0.405,0.033,0.599,0.097c0.194,0.064,0.441,0.209,0.567,0.411
			c0-0.189,0-0.416,0-0.416h0.917v4.126H17.313z M15.298,36.669c-0.24,0.253-0.358,0.608-0.358,1.008
			c0,0.366,0.118,0.707,0.366,0.956c0.215,0.217,0.499,0.359,0.849,0.359c0.345,0,0.641-0.089,0.881-0.344
			c0.239-0.254,0.331-0.628,0.331-1.013c0-0.361-0.095-0.722-0.339-0.976c-0.24-0.244-0.531-0.348-0.865-0.348
			C15.802,36.311,15.505,36.451,15.298,36.669z"/>
	</g>
	<polygon class="st0" points="24.054,32.946 24.006,30.204 24.878,30.204 24.878,33.662 23.626,33.662 22.759,30.823 22.737,30.823 
		22.786,33.662 21.922,33.662 21.922,30.204 23.226,30.204 24.036,32.946 	"/>
	<polygon class="st0" points="8.239,30.525 7.757,33.695 6.809,33.695 7.459,30.204 9.025,30.204 9.674,33.695 8.728,33.695 
		8.259,30.525 	"/>
	<polygon class="st0" points="12.336,32.874 12.771,30.204 14.204,30.204 14.283,33.695 13.402,33.695 13.378,30.555 13.361,30.555 
		12.774,33.695 11.883,33.695 11.294,30.555 11.274,30.555 11.253,33.695 10.374,33.695 10.453,30.204 11.887,30.204 12.318,32.874 
			"/>
	<path class="st0" d="M19.707,33.171c0.246,0,0.321-0.165,0.338-0.251c0.007-0.038,0.008-0.088,0.008-0.133v-2.583h0.892v2.503
		c0,0.065-0.007,0.196-0.011,0.231c-0.06,0.651-0.58,0.861-1.227,0.861c-0.647,0-1.165-0.21-1.225-0.861
		c-0.004-0.035-0.009-0.166-0.009-0.231v-2.503h0.89v2.583c-0.003,0.045,0.002,0.096,0.007,0.133
		C19.387,33.005,19.463,33.171,19.707,33.171"/>
	<path class="st0" d="M5.329,32.709c0.034,0.086,0.023,0.194,0.008,0.259c-0.029,0.116-0.108,0.236-0.343,0.236
		c-0.219,0-0.352-0.127-0.352-0.317l-0.003-0.339H3.697v0.269c0,0.78,0.616,1.014,1.275,1.014c0.638,0,1.161-0.214,1.243-0.796
		c0.044-0.303,0.012-0.5-0.002-0.574c-0.149-0.733-1.484-0.948-1.583-1.358c-0.017-0.073-0.013-0.144-0.004-0.183
		c0.025-0.114,0.102-0.236,0.321-0.236c0.207,0,0.328,0.128,0.328,0.316v0.218h0.877v-0.245c0-0.761-0.688-0.88-1.187-0.88
		c-0.624,0-1.134,0.207-1.228,0.777c-0.024,0.154-0.027,0.293,0.008,0.469C3.898,32.053,5.149,32.259,5.329,32.709"/>
	<path class="st0" d="M16.756,32.705c0.036,0.083,0.021,0.19,0.008,0.255c-0.028,0.115-0.109,0.23-0.339,0.23
		c-0.218,0-0.35-0.123-0.35-0.312v-0.336h-0.934v0.268c0,0.773,0.611,1.003,1.266,1.003c0.628,0,1.146-0.212,1.229-0.79
		c0.042-0.298,0.011-0.494-0.005-0.569c-0.147-0.722-1.467-0.937-1.563-1.344c-0.018-0.068-0.013-0.141-0.005-0.18
		c0.025-0.11,0.101-0.232,0.318-0.232c0.206,0,0.325,0.125,0.325,0.311v0.215h0.867v-0.241c0-0.753-0.681-0.871-1.172-0.871
		c-0.619,0-1.126,0.201-1.217,0.768c-0.027,0.152-0.031,0.289,0.008,0.466C15.341,32.053,16.578,32.256,16.756,32.705"/>
	<path class="st0" d="M27.038,33.136c0.253,0,0.342-0.157,0.358-0.254c0.006-0.038,0.009-0.087,0.009-0.132v-0.505h-0.36v-0.513
		h1.244v0.939c0,0.065-0.003,0.113-0.011,0.23c-0.059,0.633-0.615,0.862-1.239,0.862c-0.622,0-1.174-0.229-1.232-0.862
		c-0.012-0.116-0.013-0.164-0.013-0.23v-1.469c0-0.063,0.007-0.174,0.015-0.229c0.076-0.656,0.608-0.862,1.23-0.862
		c0.624,0,1.172,0.204,1.234,0.862c0.013,0.108,0.007,0.229,0.007,0.229l0.001,0.114h-0.886V31.12c0,0,0-0.083-0.011-0.133
		c-0.016-0.076-0.084-0.253-0.352-0.253c-0.253,0-0.329,0.168-0.349,0.253c-0.011,0.045-0.014,0.109-0.014,0.165v1.598
		c0,0.045,0.002,0.094,0.006,0.132C26.695,32.978,26.783,33.136,27.038,33.136"/>
</g>
<g>
	<rect x="35" y="25" class="st11" width="60" height="20"/>
	<g>
		<g>
			<g>
				<path class="st0" d="M47.927,30.676c0.153,0.174,0.13,0.315,0.038,0.524s-0.436,0.804-1.023,1.324
					c-0.592,0.525-1.132,0.812-1.358,0.908c-0.226,0.095-0.362,0.069-0.515-0.104l-0.184-0.209c-0.153-0.174-0.17-0.408-0.038-0.524
					c0,0,0.896-0.584,1.287-0.928c0.391-0.343,1.094-1.304,1.094-1.304c0.132-0.116,0.362-0.069,0.515,0.104L47.927,30.676z"/>
			</g>
			<path class="st0" d="M47.92,33.173l-0.187-0.213c-0.155-0.176-0.39-0.222-0.526-0.103c0,0-0.725,0.985-1.126,1.337
				c-0.402,0.353-1.321,0.955-1.321,0.955c-0.136,0.119-0.12,0.359,0.035,0.535l0.187,0.213c0.155,0.176,0.295,0.202,0.526,0.103
				c0.122-0.052,0.339-0.165,0.603-0.335v3.625c0,0.217,0.163,0.393,0.363,0.393h0.318c0.201,0,0.363-0.176,0.363-0.393V34.81
				c0.443-0.461,0.72-0.922,0.8-1.103C48.05,33.493,48.075,33.349,47.92,33.173z"/>
			<path class="st0" d="M55.038,33.856h-3.552c-0.008,0-0.014,0.004-0.021,0.004c-0.007,0-0.013-0.004-0.021-0.004h-0.715
				c-0.131,0-0.237-0.106-0.237-0.237v-0.496c0-0.131,0.106-0.237,0.237-0.237h0.715c0.217,0,0.393-0.175,0.393-0.391v-0.261
				c0-0.216-0.176-0.392-0.393-0.392h-0.715c-0.131,0-0.237-0.106-0.237-0.236v-0.849c0-0.217-0.175-0.393-0.391-0.393H49.84
				c-0.216,0-0.392,0.176-0.392,0.393v0.849c0,0.131-0.106,0.236-0.236,0.236h-0.747c-0.217,0-0.393,0.175-0.393,0.392v0.261
				c0,0.216,0.176,0.391,0.393,0.391h0.747c0.131,0,0.236,0.106,0.236,0.237v0.496c0,0.131-0.106,0.237-0.236,0.237h-0.747
				c-0.217,0-0.393,0.175-0.393,0.391v0.261c0,0.216,0.176,0.391,0.393,0.391h0.747c0.131,0,0.236,0.106,0.236,0.237v0.447
				c0,0.131-0.106,0.237-0.236,0.237h-0.747c-0.217,0-0.393,0.175-0.393,0.391v0.261c0,0.216,0.176,0.392,0.393,0.392h0.747
				c0.131,0,0.236,0.106,0.236,0.236v0.871c0,0.112-0.078,0.208-0.188,0.232c-0.655,0.138-1.311,0.269-1.311,0.269
				c-0.218,0.055-0.348,0.282-0.292,0.506l0.069,0.271c0.057,0.224,0.19,0.304,0.497,0.306c0.307,0.002,0.737-0.048,1.717-0.299
				c0.972-0.249,1.579-0.666,1.812-0.825c0.233-0.159,0.348-0.282,0.291-0.506l-0.069-0.271c-0.057-0.224-0.279-0.361-0.497-0.306
				c0,0-0.285,0.142-0.653,0.308c-0.156,0.071-0.334-0.044-0.334-0.216v-0.339c0-0.131,0.106-0.236,0.237-0.236h0.715
				c0.217,0,0.393-0.175,0.393-0.392v-0.261c0-0.216-0.176-0.391-0.393-0.391h-0.715c-0.131,0-0.237-0.106-0.237-0.237v-0.447
				c0-0.131,0.106-0.237,0.237-0.237h0.715c0.007,0,0.013-0.004,0.021-0.004c0.007,0,0.014,0.004,0.021,0.004h0.884
				c0.133,0,0.241,0.108,0.241,0.241v4.148c0,0.217,0.163,0.393,0.363,0.393h0.318c0.201,0,0.363-0.176,0.363-0.393v-4.148
				c0-0.133,0.108-0.241,0.241-0.241h1.142c0.217,0,0.393-0.175,0.393-0.391v-0.261C55.431,34.032,55.255,33.856,55.038,33.856z"/>
			<path class="st0" d="M53.191,30.307c-0.019-0.001-0.037,0.003-0.056,0.003c-0.019,0-0.037-0.004-0.056-0.003
				c-0.587,0.032-0.971,0.582-0.873,1.191c0.097,0.598,0.803,1.842,0.803,1.842c0.025,0.054,0.075,0.079,0.126,0.079
				c0.05,0.001,0.101-0.025,0.126-0.079c0,0,0.707-1.244,0.803-1.842C54.162,30.889,53.778,30.339,53.191,30.307z M53.135,31.74
				c-0.247,0-0.448-0.201-0.448-0.448c0-0.247,0.201-0.448,0.448-0.448s0.448,0.201,0.448,0.448
				C53.582,31.539,53.382,31.74,53.135,31.74z"/>
		</g>
		<path class="st0" d="M53.756,28.08h-7.414c-1.766,0-3.203,1.437-3.203,3.203v7.414c0,1.766,1.437,3.203,3.203,3.203h7.414
			c1.766,0,3.203-1.437,3.203-3.203v-7.414C56.96,29.517,55.522,28.08,53.756,28.08z M56.126,38.698c0,1.307-1.063,2.37-2.37,2.37
			h-7.414c-1.307,0-2.37-1.063-2.37-2.37v-7.414c0-1.307,1.063-2.37,2.37-2.37h7.414c1.307,0,2.37,1.063,2.37,2.37V38.698z"/>
		<path class="st0" d="M65.716,31.149l-6.141-0.007c-0.741-0.001-1.101,0.369-1.102,1.099l-0.007,6.096
			c-0.001,0.741,0.358,1.101,1.099,1.102l6.141,0.007c0.73,0.001,1.101-0.358,1.102-1.099l0.007-6.096
			C66.815,31.521,66.445,31.15,65.716,31.149z M65.644,37.953c0,0.121-0.034,0.215-0.102,0.28c-0.065,0.062-0.156,0.094-0.272,0.094
			l-5.266-0.006c-0.245-0.001-0.374-0.13-0.374-0.375l0.006-5.31c0-0.117,0.032-0.208,0.095-0.273
			c0.065-0.067,0.159-0.101,0.279-0.101l5.267,0.006c0.234,0.001,0.374,0.141,0.374,0.375L65.644,37.953z"/>
		<g>
			<path class="st0" d="M86.717,31.982c-0.083-0.073-0.218-0.115-0.384-0.115l-0.811-0.001l0.001-1.382
				c-0.01-0.322-0.197-0.489-0.571-0.489c-0.374,0.02-0.572,0.186-0.572,0.488l-0.001,1.382l-3.325-0.004
				c-0.187,0-0.312,0.041-0.385,0.103c-0.104,0.083-0.146,0.239-0.146,0.467c0,0.208,0.041,0.353,0.145,0.437
				c0.093,0.083,0.218,0.125,0.384,0.125l3.325,0.004l-0.006,5.081c0,0.104-0.052,0.156-0.156,0.156
				c-0.178,0-2.162,0.125-4.468,0.076l0.007-5.703c0.25-0.581,0.438-1.132,0.573-1.651c0.032-0.135,0.052-0.281,0.073-0.436
				c0-0.208-0.072-0.353-0.207-0.426c-0.124-0.062-0.291-0.104-0.478-0.104c-0.166,0.031-0.291,0.145-0.364,0.332
				c-0.407,1.402-1,2.732-1.781,3.998c-0.083,0.125-0.136,0.239-0.136,0.343c0,0.166,0.051,0.301,0.166,0.395
				c0.124,0.114,0.291,0.166,0.488,0.167c0.208,0,0.364-0.072,0.489-0.238c0.011-0.021,0.021-0.041,0.042-0.062l-0.004,3.348
				c-1.82-0.087-3.688-0.304-4.935-0.788c0.073-0.041,0.156-0.083,0.239-0.135c0.821-0.519,1.466-1.079,1.935-1.671
				c0.333-0.467,0.51-0.862,0.542-1.184c0-0.312-0.114-0.53-0.342-0.676c-0.135-0.073-0.384-0.115-0.758-0.136l-2.234-0.003
				l0.001-1.382l3.658,0.004c0.187,0,0.333-0.052,0.426-0.166c0.063-0.083,0.104-0.197,0.104-0.363c0-0.208-0.041-0.343-0.124-0.405
				c-0.083-0.083-0.218-0.125-0.405-0.125l-3.658-0.004l0.001-0.894c0-0.166-0.062-0.301-0.176-0.406
				c-0.083-0.073-0.228-0.115-0.426-0.115c-0.229,0-0.374,0.041-0.447,0.114c-0.115,0.125-0.167,0.259-0.167,0.405l-0.001,0.894
				l-3.491-0.004c-0.177,0-0.312,0.041-0.405,0.124c-0.083,0.093-0.125,0.228-0.125,0.405c0,0.198,0.041,0.333,0.124,0.406
				c0.093,0.083,0.228,0.125,0.405,0.125l3.491,0.004l-0.001,1.382l-3.169-0.004c-0.156,0-0.271,0.041-0.354,0.114
				c-0.094,0.093-0.135,0.218-0.135,0.374c0,0.166,0.031,0.291,0.114,0.374c0.052,0.104,0.177,0.146,0.374,0.146l0.467,0
				c-0.094,0.093-0.135,0.218-0.136,0.374c0.01,0.166,0.145,0.385,0.415,0.665c0.643,0.708,1.256,1.259,1.837,1.675
				c-0.894,0.331-1.996,0.673-3.316,1.025c-0.146,0.083-0.208,0.249-0.208,0.488c0,0.104,0.052,0.218,0.155,0.322
				c0.104,0.104,0.249,0.167,0.415,0.167c0.312-0.021,0.769-0.113,1.362-0.289c1.06-0.342,1.975-0.684,2.765-1.015
				c3.694,1.756,11.439,1.281,11.855,1.282c0.416-0.041,0.717-0.134,0.904-0.269c0.208-0.166,0.322-0.374,0.323-0.623l0.006-5.486
				l0.811,0.001c0.208,0,0.353-0.052,0.447-0.176c0.052-0.063,0.083-0.198,0.083-0.385C86.862,32.2,86.81,32.044,86.717,31.982z
				 M72.465,36.89c-0.052-0.021-0.104-0.052-0.145-0.083c-0.82-0.521-1.495-1.114-2.035-1.779c-0.073-0.083-0.166-0.187-0.27-0.302
				c-0.01,0-0.02-0.021-0.031-0.041l4.863,0.006c0.104,0,0.166,0.031,0.166,0.083c-0.042,0.229-0.271,0.53-0.666,0.883
				c-0.52,0.456-1.103,0.851-1.768,1.182C72.538,36.859,72.507,36.87,72.465,36.89z"/>
			<path class="st0" d="M82.285,36.787c0.052,0.042,0.135,0.062,0.26,0.063c0.177,0,0.312-0.041,0.416-0.145
				c0.073-0.062,0.115-0.156,0.115-0.301c0-0.312-0.113-0.686-0.321-1.143c-0.373-0.749-0.674-1.227-0.892-1.456
				c-0.125-0.084-0.259-0.136-0.405-0.156c-0.104,0-0.197,0.021-0.281,0.052c-0.114,0.062-0.198,0.135-0.25,0.228
				c-0.031,0.083-0.041,0.145-0.042,0.208c0,0.104,0.031,0.187,0.083,0.27c0.539,0.977,0.933,1.716,1.171,2.204
				C82.181,36.694,82.223,36.756,82.285,36.787z"/>
		</g>
	</g>
</g>
<g>
	<path class="st12" d="M157,45h-54c-1.65,0-3-1.35-3-3V28c0-1.65,1.35-3,3-3h54c1.65,0,3,1.35,3,3v14C160,43.65,158.65,45,157,45z"
		/>
	<g>
		<polygon class="st0" points="131.551,35.685 128.316,35.685 128.316,34.22 131.952,34.22 131.952,33.108 127.079,33.108 
			127.079,39.214 128.316,39.214 128.316,36.797 131.551,36.797 		"/>
		<polygon class="st0" points="140.207,33.108 134.786,33.108 134.786,34.238 136.878,34.238 136.878,39.214 138.115,39.214 
			138.115,34.238 140.207,34.238 		"/>
		<polygon class="st0" points="147.468,36.681 147.468,35.596 144.268,35.596 144.268,34.193 147.869,34.193 147.869,33.108 
			143.04,33.108 143.04,39.214 147.914,39.214 147.914,38.129 144.268,38.129 144.268,36.681 		"/>
		<polygon class="st0" points="155.174,36.681 155.174,35.596 151.975,35.596 151.975,34.193 155.576,34.193 155.576,33.108 
			150.747,33.108 150.747,39.214 155.62,39.214 155.62,38.129 151.975,38.129 151.975,36.681 		"/>
		<g>
			<path class="st0" d="M122.855,39.217h1.346l-3.055-6.031c-0.051-0.096-0.126-0.177-0.218-0.233c-0.185-0.112-0.426-0.112-0.61,0
				c-0.092,0.056-0.167,0.136-0.218,0.233l-3.055,6.031h1.346l2.232-4.47L122.855,39.217z"/>
			<rect x="117" y="30.783" class="st0" width="7.246" height="0.943"/>
		</g>
	</g>
	<g>
		<path class="st13" d="M109.866,34.619l-3.265-1.748v0.981L108.746,35l-2.145,1.148v0.981l3.265-1.747
			c0.069-0.037,0.127-0.092,0.167-0.159c0.04-0.067,0.062-0.144,0.062-0.222c0-0.078-0.021-0.155-0.062-0.222
			C109.992,34.711,109.935,34.656,109.866,34.619z"/>
		<rect x="110.677" y="32.92" class="st13" width="0.824" height="4.159"/>
		<path class="st13" d="M108.938,29.114c-3.245,0-5.886,2.64-5.886,5.886c0,3.245,2.64,5.886,5.886,5.886s5.886-2.64,5.886-5.886
			C114.824,31.755,112.184,29.114,108.938,29.114z M108.938,40.062c-2.791,0-5.062-2.271-5.062-5.062
			c0-2.791,2.271-5.062,5.062-5.062S114,32.209,114,35C114,37.791,111.729,40.062,108.938,40.062z"/>
	</g>
</g>
<g>
	<g>
		<path class="st0" d="M219,44h-52c-0.55,0-1-0.45-1-1V27c0-0.55,0.45-1,1-1h52c0.55,0,1,0.45,1,1v16C220,43.55,219.55,44,219,44z"
			/>
		<path class="st14" d="M219,26c0.55,0,1,0.45,1,1v16c0,0.55-0.45,1-1,1h-52c-0.55,0-1-0.45-1-1V27c0-0.55,0.45-1,1-1H219 M219,25
			h-52c-1.103,0-2,0.897-2,2v16c0,1.103,0.897,2,2,2h52c1.103,0,2-0.897,2-2V27C221,25.897,220.103,25,219,25L219,25z"/>
	</g>
	<g>
		<path class="st15" d="M197.891,34.216c-0.07,0.068-0.105,0.159-0.105,0.25c0,0.087,0.033,0.176,0.099,0.243l0,0
			c0.068,0.071,0.16,0.107,0.251,0.107h0c0.087,0,0.175-0.033,0.243-0.099l1.087-1.053c0.068-0.066,0.106-0.156,0.106-0.25
			c0-0.095-0.039-0.186-0.106-0.252l-1.087-1.053c-0.068-0.066-0.156-0.099-0.243-0.099c-0.091,0-0.183,0.036-0.251,0.107
			c-0.066,0.068-0.099,0.155-0.099,0.243c0,0.09,0.035,0.181,0.105,0.25c0,0.001,0.001,0.001,0.001,0.001l0.827,0.803l-0.827,0.801
			C197.893,34.216,197.891,34.216,197.891,34.216z M190.22,36.985c0.015,0,0.03-0.001,0.045-0.003h0.001
			c0.956-0.126,1.779-0.443,2.46-0.844c0.681,0.445,1.502,0.818,2.424,0.953c0.017,0.002,0.033,0.003,0.049,0.003
			c0.167,0,0.312-0.122,0.337-0.291c0.002-0.017,0.004-0.033,0.004-0.05c0-0.166-0.122-0.312-0.291-0.336
			c-0.696-0.102-1.34-0.364-1.901-0.695c0.005-0.004,0.01-0.007,0.015-0.011c0.779-0.594,1.523-1.261,1.797-1.8l0.001-0.001
			c0.057-0.117,0.119-0.261,0.122-0.446v-0.001c0-0.066-0.009-0.14-0.038-0.215l0,0c-0.043-0.117-0.139-0.225-0.257-0.284l0,0
			c-0.115-0.06-0.237-0.078-0.363-0.079h-3.389l0.422-0.689c0.034-0.056,0.051-0.118,0.05-0.178c0.001-0.114-0.057-0.226-0.162-0.29
			c-0.056-0.034-0.117-0.051-0.178-0.051c-0.114,0-0.226,0.058-0.29,0.163l-0.741,1.208c-0.033,0.055-0.051,0.116-0.051,0.178
			c0,0.058,0.015,0.115,0.044,0.167c0.06,0.107,0.174,0.174,0.297,0.174h3.933c-0.115,0.199-0.334,0.459-0.604,0.728
			c-0.297,0.297-0.656,0.608-1.006,0.873c-0.067,0.051-0.136,0.101-0.207,0.151c-0.606-0.455-1.068-0.964-1.312-1.321
			c-0.067-0.096-0.173-0.148-0.281-0.148c-0.067,0-0.134,0.02-0.193,0.06c-0.096,0.066-0.147,0.173-0.147,0.281
			c0,0.067,0.019,0.134,0.06,0.193c0,0,0,0.001,0,0.001c0.263,0.381,0.689,0.857,1.248,1.31c-0.555,0.29-1.203,0.514-1.943,0.611
			c-0.171,0.023-0.296,0.169-0.296,0.338c0,0.014,0.001,0.029,0.003,0.044C189.906,36.861,190.052,36.985,190.22,36.985z
			 M188.991,36.03c0,0.188,0.152,0.341,0.34,0.341c0.188,0,0.341-0.152,0.341-0.341v-2.807c0-0.188-0.152-0.34-0.341-0.34
			c-0.188,0-0.34,0.152-0.34,0.34V36.03z M203.225,33.286h2.777c0.188,0,0.341-0.153,0.341-0.341c0-0.188-0.152-0.34-0.341-0.34
			h-2.237l0.21-0.439c0.023-0.047,0.033-0.098,0.033-0.147c0-0.127-0.072-0.249-0.194-0.307c-0.048-0.023-0.098-0.034-0.147-0.034
			c-0.127,0-0.249,0.071-0.307,0.195l-0.443,0.926c-0.023,0.046-0.033,0.097-0.033,0.147c0,0.064,0.017,0.126,0.052,0.182
			C202.999,33.226,203.108,33.286,203.225,33.286z M202.766,34.692c0-0.188-0.153-0.34-0.341-0.34h-1.206
			c0.003-0.141,0.004-0.272,0.004-0.389c0-0.169,0.002-0.311,0-0.418h0.986c0.091,0,0.177-0.036,0.241-0.099
			c0.063-0.064,0.099-0.151,0.099-0.242v-1.186c0-0.188-0.152-0.34-0.341-0.341c-0.188,0.001-0.341,0.153-0.341,0.341v0.846h-1.725
			c-0.189,0-0.341,0.152-0.341,0.34c0,0.188,0.152,0.341,0.341,0.341h0.398c0.003,0.104,0,0.246,0,0.418v0.002
			c0,0.53-0.022,1.345-0.124,2.179c-0.101,0.834-0.29,1.689-0.592,2.279c-0.025,0.05-0.037,0.103-0.037,0.154
			c0,0.124,0.068,0.244,0.187,0.304c0.049,0.025,0.102,0.037,0.154,0.037c0.124,0,0.244-0.068,0.304-0.186
			c0.364-0.717,0.553-1.629,0.661-2.506c0.051-0.415,0.083-0.822,0.102-1.194h0.885c-0.006,0.274-0.023,0.693-0.063,1.179
			c-0.064,0.787-0.191,1.755-0.429,2.557c-0.01,0.032-0.015,0.065-0.015,0.097c0,0.147,0.096,0.282,0.244,0.327
			c0.032,0.009,0.065,0.013,0.097,0.013l0,0c0.147,0,0.282-0.095,0.326-0.244c0.26-0.879,0.388-1.88,0.455-2.695
			C202.763,35.454,202.766,34.809,202.766,34.692z M203.739,38.421c-0.188,0-0.341,0.153-0.341,0.341
			c0,0.188,0.152,0.341,0.341,0.341h0.935c0.327,0,0.588-0.267,0.588-0.59v-1.837h0.729c0.188,0,0.341-0.153,0.341-0.341
			c0-0.188-0.153-0.34-0.341-0.34h-0.729v-0.675l0.594-1.036c0.03-0.052,0.046-0.111,0.046-0.169c0-0.06-0.016-0.118-0.046-0.171
			c-0.061-0.106-0.173-0.17-0.295-0.17h-1.992c-0.187,0-0.34,0.153-0.34,0.341c0,0.187,0.153,0.34,0.34,0.34h1.404l-0.346,0.604
			c-0.029,0.052-0.045,0.11-0.045,0.17v0.766h-1.266c-0.188,0-0.341,0.152-0.341,0.34c0,0.188,0.153,0.341,0.341,0.341h1.266v1.745
			H203.739z M188.839,31.717L188.839,31.717c-0.05-0.027-0.105-0.04-0.159-0.04c-0.122,0-0.241,0.066-0.301,0.183
			c-0.269,0.51-0.873,1.48-1.889,2.292c-0.083,0.067-0.128,0.166-0.128,0.266c0,0.074,0.025,0.15,0.075,0.213
			c0.067,0.084,0.167,0.128,0.266,0.128c0.075,0,0.15-0.025,0.213-0.074c0.221-0.178,0.424-0.361,0.609-0.546v2.54
			c0,0.188,0.152,0.34,0.34,0.34c0.188,0,0.34-0.152,0.34-0.34V33.37c0.366-0.469,0.618-0.897,0.774-1.192
			c0.027-0.051,0.04-0.106,0.04-0.159C189.02,31.896,188.955,31.779,188.839,31.717z M195.155,37.792
			c-0.053-0.136-0.183-0.22-0.321-0.22c-0.042,0-0.084,0.008-0.125,0.024c-0.136,0.054-0.219,0.183-0.219,0.321
			c0,0.042,0.007,0.084,0.023,0.125l0.718,1.842c0.053,0.137,0.183,0.22,0.321,0.22c0.041,0,0.084-0.008,0.125-0.024
			c0.135-0.053,0.219-0.182,0.219-0.321c0-0.042-0.008-0.084-0.024-0.125L195.155,37.792z M206.072,39.57L206.072,39.57
			c-4.929,0-4.929,0-4.945,0c-0.71-0.002-1.13-0.234-1.394-0.457c-0.16-0.136-0.267-0.276-0.321-0.355v-2.667
			c0-0.448-0.363-0.811-0.811-0.811h-0.696c-0.188,0-0.34,0.152-0.341,0.34c0,0.189,0.153,0.341,0.341,0.341h0.667
			c0.088,0.001,0.159,0.072,0.159,0.16v2.412c0.001,0.181-0.067,0.418-0.201,0.618c-0.137,0.203-0.335,0.371-0.606,0.458
			c-0.145,0.047-0.237,0.18-0.237,0.325c0,0.034,0.005,0.069,0.015,0.103c0.046,0.145,0.181,0.237,0.325,0.237
			c0.034,0,0.069-0.005,0.103-0.016c0.43-0.137,0.755-0.413,0.965-0.728c0.011-0.017,0.023-0.035,0.034-0.052
			c0.049,0.05,0.102,0.102,0.163,0.153c0.365,0.316,0.965,0.62,1.827,0.62h0.008c0.016,0,0.016,0,4.945,0
			c0.188,0,0.341-0.152,0.341-0.341C206.413,39.723,206.26,39.57,206.072,39.57z M187.861,37.572c-0.001,0-0.002,0-0.005,0
			c-0.188,0.003-0.339,0.156-0.339,0.344c0,0.001,0,0.002,0,0.004v0.008c0,0.046-0.005,0.295-0.064,0.611
			c-0.061,0.323-0.182,0.713-0.398,1.025c-0.04,0.059-0.06,0.127-0.06,0.194c0,0.11,0.052,0.217,0.15,0.284
			c0.059,0.041,0.127,0.061,0.194,0.061l0,0c0.11,0,0.218-0.053,0.284-0.149c0.293-0.43,0.432-0.904,0.505-1.286
			c0.073-0.382,0.077-0.675,0.077-0.742c0-0.007-0.001-0.013-0.001-0.013C188.204,37.724,188.05,37.572,187.861,37.572z
			 M213.906,37.306c0.071,0.078,0.169,0.117,0.267,0.117l0,0c0.088,0,0.176-0.032,0.246-0.096c0.077-0.072,0.117-0.169,0.117-0.268
			c0-0.088-0.032-0.176-0.097-0.246l-1.326-1.436c-0.069-0.074-0.166-0.117-0.267-0.117c-0.101,0-0.199,0.043-0.267,0.117
			l-1.326,1.436c-0.065,0.07-0.097,0.159-0.097,0.246c0,0.098,0.039,0.196,0.117,0.268c0.07,0.064,0.158,0.096,0.246,0.096
			c0.098,0,0.196-0.039,0.267-0.117c0.001,0,0.001-0.001,0.001-0.001l1.059-1.145L213.906,37.306z M211.316,32.127
			c0-0.135-0.078-0.265-0.209-0.324l0,0c-0.048-0.022-0.099-0.032-0.147-0.032c-0.135,0-0.264,0.077-0.324,0.207
			c0,0.001-0.001,0.001-0.001,0.002c-0.104,0.23-0.36,0.721-0.789,1.31c-0.429,0.59-1.031,1.28-1.831,1.922
			c-0.088,0.07-0.134,0.174-0.134,0.279c0,0.078,0.025,0.158,0.078,0.223c0.071,0.088,0.174,0.133,0.279,0.133
			c0.077,0,0.157-0.026,0.223-0.078c0.412-0.332,0.775-0.674,1.092-1.01v5.159c0,0.197,0.16,0.356,0.357,0.357
			c0.198,0,0.357-0.16,0.357-0.357v-6c0.054-0.07,0.106-0.14,0.156-0.208c0.459-0.633,0.735-1.159,0.861-1.435
			C211.306,32.227,211.316,32.177,211.316,32.127z M217.077,33.687h-0.99v-1.56c0-0.197-0.16-0.357-0.356-0.357
			c-0.197,0-0.357,0.16-0.357,0.357v1.56h-4.197c-0.197,0-0.356,0.159-0.356,0.356c0,0.197,0.16,0.357,0.356,0.357h4.197v4.171
			c0,0.3-0.121,0.569-0.317,0.767c-0.198,0.197-0.467,0.317-0.767,0.317c-0.301,0-0.57-0.12-0.768-0.317
			c-0.197-0.198-0.317-0.467-0.318-0.767v-0.999c0-0.197-0.159-0.357-0.356-0.357c-0.197,0-0.357,0.16-0.357,0.357v0.999
			c0,0.993,0.805,1.798,1.799,1.798c0.993,0,1.797-0.805,1.798-1.798V34.4h0.99c0.197,0,0.357-0.16,0.357-0.357
			C217.434,33.846,217.274,33.687,217.077,33.687z M193.985,37.729L193.985,37.729c-0.117-0.101-0.269-0.156-0.429-0.157h-2.343
			c-0.19,0-0.344,0.154-0.344,0.344c0,0.046,0.009,0.089,0.025,0.129l0.395,1.011c0.053,0.137,0.182,0.219,0.321,0.219
			c0.042,0,0.084-0.007,0.125-0.024c0.136-0.053,0.219-0.183,0.219-0.32c0-0.042-0.008-0.084-0.024-0.125l-0.213-0.546h1.783v1.198
			c0,0.057-0.047,0.104-0.104,0.104h-3.614c-0.057,0-0.103-0.047-0.103-0.104v-2.128c0-0.19-0.155-0.344-0.345-0.344
			c-0.19,0-0.344,0.154-0.344,0.344v2.15c0,0.425,0.344,0.77,0.77,0.77h3.657c0.426,0,0.771-0.345,0.771-0.77v-1.316
			C194.188,37.987,194.102,37.831,193.985,37.729z"/>
		<g>
			<path class="st16" d="M176.336,37.958c0.5-0.029,0.973,1.005,1.184,1.307c0.136,0.196,0.271,0.257,0.424,0.44
				c0.052,0.063,0.315,0.203,0.4,0.212c0.504,0.052,0.823-0.123,1.061-0.189c0.322-0.091,0.522-0.098,0.794-0.263
				c0.258-0.155,2.214-0.975,2.32-0.311c0.082,0.512-1.326,1.347-1.641,1.557c-0.068,0.046-0.091,0.16-0.168,0.195
				c-0.35,0.161-1.71,0.695-2.179,0.579c-0.696-0.171-1.581-1.742-1.869-2.342C176.614,39.044,175.972,37.979,176.336,37.958z"/>
			<g>
				<path class="st16" d="M179.486,38.479c-0.178-0.099-0.243-0.325-0.143-0.503l0,0c0.422-0.759,0.67-1.627,0.688-2.557l0,0
					c0.001-0.037,0.001-0.075,0.001-0.112l0,0c-0.001-1.079-0.312-2.085-0.851-2.936l0,0c-0.54-0.85-1.308-1.545-2.218-1.993l0,0
					l0,0c-0.184-0.09-0.259-0.312-0.169-0.495l0,0c0.091-0.183,0.313-0.259,0.496-0.168l0,0c1.035,0.509,1.905,1.295,2.516,2.259
					l0,0c0.613,0.965,0.967,2.111,0.967,3.333l0,0c0,0.042-0.001,0.084-0.001,0.126l0,0c-0.021,1.053-0.302,2.042-0.782,2.902l0,0
					c-0.068,0.122-0.194,0.19-0.324,0.19l0,0C179.605,38.526,179.543,38.511,179.486,38.479L179.486,38.479z"/>
			</g>
			<path class="st17" d="M184.186,34.287c-0.405-1.582-1.262-2.999-2.439-4.09c-0.151-0.139-0.384-0.13-0.524,0.02
				c-0.139,0.15-0.13,0.384,0.02,0.523c0.615,0.57,1.134,1.239,1.535,1.976c-1.231-0.995-2.782-1.561-4.405-1.562
				c-0.643,0-1.296,0.09-1.943,0.276c-1.694,0.488-3.064,1.56-3.949,2.934c-0.111,0.172-0.061,0.401,0.111,0.511
				c0.062,0.041,0.132,0.06,0.2,0.06c0.122,0,0.241-0.06,0.312-0.17l0,0c0.793-1.23,2.014-2.187,3.531-2.624
				c0.58-0.168,1.163-0.247,1.738-0.247c1.683-0.001,3.286,0.685,4.45,1.858c-0.032-0.001-0.063-0.001-0.095-0.001
				c-0.481,0-0.877,0.126-1.154,0.253c-0.277,0.126-0.438,0.253-0.455,0.267c-0.16,0.129-0.185,0.362-0.057,0.521
				c0.073,0.091,0.18,0.138,0.289,0.138c0.081,0,0.163-0.026,0.231-0.081c0.001-0.001,0.002-0.002,0.004-0.003
				c0.026-0.02,0.154-0.111,0.354-0.195c0.201-0.084,0.471-0.16,0.789-0.16c0.276,0,0.589,0.056,0.94,0.221
				c0.13,0.061,0.283,0.043,0.394-0.049C184.174,34.573,184.222,34.427,184.186,34.287z"/>
			<path class="st16" d="M178.326,34.897c0,0.708-0.574,1.282-1.282,1.282c-0.708,0-1.282-0.574-1.282-1.282
				c0-0.708,0.574-1.282,1.282-1.282C177.752,33.615,178.326,34.189,178.326,34.897z"/>
			<path class="st18" d="M169.314,36.034c0.01,0.204-0.15,0.377-0.355,0.386c-0.205,0.009-0.378-0.15-0.386-0.354
				c-0.004-0.105-0.007-0.205-0.007-0.309c0-1.697,0.668-3.255,1.762-4.407c0.977-1.028,2.298-1.736,3.789-1.934
				c-0.469-0.114-0.956-0.173-1.451-0.173c-0.241,0-0.484,0.014-0.729,0.043l0,0c-0.202,0.023-0.387-0.121-0.411-0.324
				c-0.024-0.203,0.122-0.388,0.325-0.411c0.273-0.032,0.546-0.049,0.815-0.049c1.295,0,2.535,0.365,3.598,1.012
				c0.114,0.07,0.182,0.196,0.178,0.329c-0.005,0.133-0.081,0.254-0.2,0.316c-0.765,0.396-1.436,0.946-1.972,1.608
				c-0.073,0.09-0.18,0.137-0.288,0.137c-0.082,0-0.164-0.027-0.233-0.083c-0.159-0.129-0.184-0.362-0.054-0.521
				c0.364-0.45,0.784-0.854,1.25-1.201c-0.082,0.001-0.165,0.002-0.248,0.006c-1.517,0.073-2.861,0.735-3.831,1.755
				c-0.97,1.02-1.559,2.395-1.559,3.896C169.307,35.848,169.309,35.941,169.314,36.034z"/>
			<path class="st19" d="M172.976,35.893c-0.189-0.08-0.406,0.008-0.486,0.196l0,0c-0.334,0.79-0.498,1.628-0.498,2.462
				c0,0.028,0.001,0.057,0.001,0.085c-0.502-1.091-0.799-2.407-0.797-3.825c0-0.038,0-0.075,0.001-0.113
				c0.016-1.465,0.361-2.859,0.905-3.969c0.09-0.184,0.014-0.406-0.17-0.495c-0.184-0.09-0.406-0.014-0.496,0.17
				c-0.595,1.217-0.963,2.715-0.981,4.285c0,0.041-0.001,0.082-0.001,0.122c0.001,1.647,0.37,3.175,1.009,4.43
				c-0.767-0.526-1.398-1.245-1.824-2.092c-0.092-0.183-0.315-0.256-0.497-0.165c-0.183,0.092-0.257,0.314-0.164,0.497
				c0.727,1.445,1.98,2.563,3.501,3.102c0.041,0.014,0.083,0.022,0.124,0.022c0.093,0,0.185-0.035,0.254-0.101
				c0.101-0.095,0.14-0.239,0.101-0.373c-0.15-0.513-0.226-1.045-0.226-1.579c0-0.737,0.145-1.477,0.44-2.174
				C173.252,36.19,173.164,35.972,172.976,35.893z"/>
		</g>
	</g>
</g>
<g>
	<path class="st20" d="M63,70H1c-0.55,0-1-0.45-1-1V51c0-0.55,0.45-1,1-1h62c0.55,0,1,0.45,1,1v18C64,69.55,63.55,70,63,70z"/>
	<g>
		<g>
			<path class="st0" d="M51.393,62.907c-0.087-0.028-0.122-0.116-0.122-0.25c0,0,0-1.881,0-2.508c0-0.68,0.003-1.55-1.179-1.724
				c-1.538-0.226-2.27,0.759-2.411,0.958l0.947,0.659c0.039-0.27,0.146-0.631,0.339-0.852c0.153-0.174,0.708-0.433,1.015-0.096
				c0.13,0.142,0.147,0.361,0.147,0.612v0.475c-0.436,0.037-1.471,0.009-2.322,0.729c-0.261,0.221-0.432,0.51-0.5,0.896
				c-0.077,0.491,0.083,0.934,0.382,1.252c0.328,0.356,0.832,0.568,1.372,0.577c0.492,0,1.004-0.154,1.371-0.443
				c0.125,0.231,0.347,0.358,0.606,0.368c0.162,0.006,0.326-0.027,0.477-0.251c0.084-0.125-0.016-0.195,0.554-0.355v-0.119
				C52.07,62.835,51.48,62.936,51.393,62.907z M50.13,62.748c-0.228,0.154-0.368,0.279-0.638,0.308
				c-0.27,0.038-0.503-0.039-0.686-0.251c-0.26-0.289-0.295-0.818-0.179-1.184c0.077-0.269,0.252-0.463,0.465-0.587
				c0.26-0.152,0.666-0.253,1.038-0.317V62.748z"/>
			<path class="st0" d="M56.179,58.394c-0.375,0.844-1.142,2.424-1.71,3.521c-0.522-1.088-1.048-2.543-1.35-3.516l-1.297,0.685
				c0.614,1.314,1.598,2.81,2.356,3.336c0,0-1.26,2.672-1.53,3.128h0.885L57,58.63L56.179,58.394z"/>
			<path class="st0" d="M34.995,59.673c-0.24,0.935-0.648,1.854-1.241,2.613l1.097,0.927c0.301-0.827,0.46-2.095,0.272-3.531
				L34.995,59.673z"/>
			<path class="st0" d="M33.962,57.778l-0.096,0.08c0.327,0.29,0.322,0.443,0.432,1.079c0.032,0.188,0.248,0.28,0.424,0.28
				c0.24,0,0.568-0.17,0.547-0.475C35.219,57.996,34.383,57.917,33.962,57.778z"/>
			<path class="st0" d="M36.503,61.439h4.154v-0.342h-5.001l-0.136,1.027h4.295c-0.052,0.541-0.088,0.726-0.488,0.721
				c-0.33-0.004-1.697-0.004-2.045-0.016l-0.024,0.12c0.658,0.074,1.06,0.15,1.508,0.243c0.282,0.058,0.342,0.24,0.716,0.268
				c0.303,0.022,0.963,0.007,1.142-0.515c0.095-0.275,0.112-0.821,0.16-1.163h-4.315L36.503,61.439z"/>
			<path class="st0" d="M34.026,56.235l-0.08,0.08c0.187,0.175,0.395,0.369,0.537,0.808c0.064,0.328,0.152,0.464,0.512,0.464
				c0.28,0,0.457-0.216,0.464-0.488C35.483,56.499,34.395,56.323,34.026,56.235z"/>
			<path class="st0" d="M47.399,58.774c-0.019-0.552-0.17-1.069-0.533-1.43c-0.334-0.324-0.935-0.584-1.478-0.584h-3.134v3.196
				h1.256v-2.739h1.278c0.599,0,0.911,0.505,1.058,0.848c0.151,0.352,0.2,1.114,0.019,1.533c-0.162,0.39-0.562,0.728-1.02,0.728
				H35.52v0.429h6.734v2.625h1.256v-2.625h1.964c0.667,0,1.24-0.206,1.574-0.635C47.314,59.786,47.418,59.288,47.399,58.774z"/>
			<path class="st0" d="M39.287,56.987H38.68c0.096-0.078,0.155-0.121,0.155-0.245c0.007-0.705-1.076-0.704-1.522-0.587l0.014,0.09
				c0.089,0.062,0.253,0.189,0.316,0.277c0.102,0.159,0.115,0.342,0.243,0.466h-0.767v0.343h2.169V56.987z"/>
			<rect x="37.46" y="58.21" class="st0" width="1.484" height="0.342"/>
			<rect x="37.46" y="57.607" class="st0" width="1.484" height="0.342"/>
			<path class="st0" d="M39.323,58.491c0.213-0.039,0.366-0.083,0.5-0.126c-0.111,0.229-0.369,0.72-0.434,0.79
				c-0.054,0.058-0.125,0.073-0.161,0.078l0.085,0.769c0.423-0.079,0.937-0.344,1.186-0.636c0,0,0.064,0.391,0.233,0.367
				c0.11-0.016,0.247-0.042,0.256-0.273c0.019-0.483-0.676-0.802-0.676-0.802c0.048,0.167,0.076,0.235,0.125,0.422
				c-0.351,0.09-0.634,0.156-0.806,0.156c0.586-0.413,0.896-1.037,1.186-1.677h-0.667c-0.022,0.114-0.053,0.173-0.091,0.268
				c-0.154,0.004-0.106,0.002-0.273,0.002c0.311-0.216,0.662-0.983,0.772-1.224l-0.839-0.024c-0.079,0.704-0.225,1.003-0.285,1.121
				c-0.048,0.094-0.084,0.103-0.171,0.125L39.323,58.491z"/>
			<path class="st0" d="M35.653,59.233l0.085,0.769c0.423-0.079,0.937-0.344,1.186-0.636c0,0,0.064,0.391,0.233,0.367
				c0.065-0.009,0.138-0.023,0.19-0.08v0.303h1.712v-1.142h-1.712v0.374c-0.17-0.327-0.61-0.53-0.61-0.53
				c0.048,0.167,0.076,0.235,0.125,0.422c-0.351,0.09-0.634,0.156-0.806,0.156c0.586-0.413,0.896-1.037,1.186-1.677h-0.667
				c-0.022,0.114-0.053,0.173-0.091,0.268c-0.154,0.004-0.106,0.002-0.273,0.002c0.311-0.216,0.662-0.983,0.772-1.224l-0.839-0.024
				c-0.079,0.704-0.225,1.003-0.286,1.121c-0.048,0.094-0.084,0.103-0.171,0.125l0.061,0.666c0.213-0.039,0.366-0.083,0.5-0.126
				c-0.111,0.229-0.369,0.72-0.434,0.79C35.76,59.213,35.689,59.228,35.653,59.233z M37.917,59.156h0.571v0.456h-0.571V59.156z"/>
			<path class="st0" d="M30.627,56.972l-0.088,0.064c0.553,0.376,0.737,0.574,1.065,1.157c-1.032,0.042-3.831,0.118-4.372,0.096
				c1.012-0.405,2.149-0.922,2.891-1.882h-1.697c-0.728,1.049-1.35,1.596-1.622,1.753c-0.139,0.08-0.324,0.098-0.428,0.106
				l0.176,1.015c1.838-0.13,3.743-0.373,5.148-0.903c0.182,0.322,0.293,0.752,0.817,0.823c0.317,0.043,0.628-0.169,0.596-0.572
				C33.025,57.543,31.826,57.266,30.627,56.972z"/>
			<path class="st0" d="M27.085,63.379h5.099v-3.547h-5.099V63.379z M28.248,60.22h2.771v2.771h-2.771V60.22z"/>
		</g>
		<g>
			
				<radialGradient id="SVGID_1_" cx="326.3119" cy="650.8914" r="9.1443" gradientTransform="matrix(-0.4061 0.2485 0.1953 0.3191 27.5996 -226.8164)" gradientUnits="userSpaceOnUse">
				<stop  offset="0.0339" style="stop-color:#A30000"/>
				<stop  offset="0.2956" style="stop-color:#B40005"/>
				<stop  offset="0.5365" style="stop-color:#BE0008"/>
				<stop  offset="0.8501" style="stop-color:#E06651"/>
				<stop  offset="1" style="stop-color:#F19975"/>
			</radialGradient>
			<path class="st21" d="M23.217,63.324c0-0.795-0.89-1.516-2.331-2.041c-1.349,0.728-3.18,1.201-5.219,1.275v3.119
				C19.884,65.593,23.217,64.572,23.217,63.324z"/>
			
				<radialGradient id="SVGID_2_" cx="99.5529" cy="656.2903" r="13.3671" gradientTransform="matrix(-0.4521 -0.1493 -0.0934 0.2828 119.4429 -106.3065)" gradientUnits="userSpaceOnUse">
				<stop  offset="0" style="stop-color:#00388A"/>
				<stop  offset="0.1555" style="stop-color:#004194"/>
				<stop  offset="0.4083" style="stop-color:#004DA0"/>
				<stop  offset="0.5156" style="stop-color:#1B5FAB"/>
				<stop  offset="0.8473" style="stop-color:#6895CC"/>
				<stop  offset="1" style="stop-color:#87AAD9"/>
			</radialGradient>
			<path class="st22" d="M9.331,61.283C7.89,61.808,7,62.528,7,63.324c0,1.66,5.267,2.477,8.666,2.353v-3.119
				C13.126,62.642,10.802,62.076,9.331,61.283z"/>
			
				<linearGradient id="SVGID_3_" gradientUnits="userSpaceOnUse" x1="11.4046" y1="18.3499" x2="15.7647" y2="4.8264" gradientTransform="matrix(1 0 0 -1 0 72)">
				<stop  offset="0" style="stop-color:#7B5430"/>
				<stop  offset="0.0019" style="stop-color:#7D5631"/>
				<stop  offset="0.0401" style="stop-color:#987043"/>
				<stop  offset="0.0815" style="stop-color:#AD8551"/>
				<stop  offset="0.1278" style="stop-color:#BC945A"/>
				<stop  offset="0.1823" style="stop-color:#C49C60"/>
				<stop  offset="0.2653" style="stop-color:#C79F62"/>
				<stop  offset="0.398" style="stop-color:#C29B5F"/>
				<stop  offset="0.5506" style="stop-color:#B48D57"/>
				<stop  offset="0.713" style="stop-color:#9D784A"/>
				<stop  offset="0.8813" style="stop-color:#7D5A37"/>
				<stop  offset="1" style="stop-color:#624027"/>
			</linearGradient>
			<path class="st23" d="M17.224,66.732c-1.606,0-3.645-3.113-4.555-6.953c-0.848-3.58-0.414-6.526,0.95-6.91
				c0,0-0.001-0.001-0.001-0.001l-1.567,0.448c-1.351,0.402-1.778,3.341-0.934,6.907c0.909,3.84,2.949,6.953,4.555,6.953
				c0.114,0,0.223-0.016,0.326-0.046c0.328-0.097,1.546-0.442,1.546-0.442c0-0.001,0.001-0.001,0.001-0.002
				C17.443,66.715,17.336,66.732,17.224,66.732z"/>
			
				<linearGradient id="SVGID_4_" gradientUnits="userSpaceOnUse" x1="12.8854" y1="20.5945" x2="17.771" y2="5.401" gradientTransform="matrix(1 0 0 -1 0 72)">
				<stop  offset="0.0138" style="stop-color:#C79F62"/>
				<stop  offset="0.0229" style="stop-color:#C9A267"/>
				<stop  offset="0.1362" style="stop-color:#DCC39D"/>
				<stop  offset="0.2417" style="stop-color:#EBDDC7"/>
				<stop  offset="0.3364" style="stop-color:#F6F0E6"/>
				<stop  offset="0.4169" style="stop-color:#FDFBF8"/>
				<stop  offset="0.4736" style="stop-color:#FFFFFF"/>
				<stop  offset="0.5355" style="stop-color:#FDFBF9"/>
				<stop  offset="0.6217" style="stop-color:#F6F0E7"/>
				<stop  offset="0.7222" style="stop-color:#ECDEC9"/>
				<stop  offset="0.8335" style="stop-color:#DDC5A0"/>
				<stop  offset="0.9523" style="stop-color:#CAA56B"/>
				<stop  offset="0.9717" style="stop-color:#C79F62"/>
			</linearGradient>
			<path class="st24" d="M18.486,59.778c-0.909-3.84-2.949-6.953-4.555-6.953s-2.171,3.113-1.262,6.953
				c0.909,3.84,2.949,6.953,4.555,6.953C18.83,66.732,19.395,63.619,18.486,59.778z"/>
			
				<linearGradient id="SVGID_5_" gradientUnits="userSpaceOnUse" x1="15.6006" y1="14.0826" x2="16.9308" y2="10.0366" gradientTransform="matrix(1 0 0 -1 0 72)">
				<stop  offset="0" style="stop-color:#7B5430"/>
				<stop  offset="0.0019" style="stop-color:#7D5631"/>
				<stop  offset="0.0401" style="stop-color:#987043"/>
				<stop  offset="0.0815" style="stop-color:#AD8551"/>
				<stop  offset="0.1278" style="stop-color:#BC945A"/>
				<stop  offset="0.1823" style="stop-color:#C49C60"/>
				<stop  offset="0.2653" style="stop-color:#C79F62"/>
				<stop  offset="0.398" style="stop-color:#C29B5F"/>
				<stop  offset="0.5506" style="stop-color:#B48D57"/>
				<stop  offset="0.713" style="stop-color:#9D784A"/>
				<stop  offset="0.8813" style="stop-color:#7D5A37"/>
				<stop  offset="1" style="stop-color:#624027"/>
			</linearGradient>
			<polygon class="st25" points="15.668,57.865 15.664,60.343 16.929,61.909 16.929,59.725 			"/>
			<g>
				
					<radialGradient id="SVGID_6_" cx="351.0874" cy="99.4238" r="15.314" gradientTransform="matrix(0.4761 0 0 -0.4761 -144.0873 108.8576)" gradientUnits="userSpaceOnUse">
					<stop  offset="0" style="stop-color:#FFE9B3"/>
					<stop  offset="0.3559" style="stop-color:#F9BF2C"/>
					<stop  offset="0.4828" style="stop-color:#F1B226"/>
					<stop  offset="0.7195" style="stop-color:#DA8E16"/>
					<stop  offset="1" style="stop-color:#BB5D00"/>
				</radialGradient>
				<path class="st26" d="M18.23,57.451v3.187c0.306,0.046,0.601,0.098,0.887,0.156v-3.187C18.831,57.55,18.536,57.497,18.23,57.451
					z"/>
				
					<radialGradient id="SVGID_7_" cx="351.0865" cy="99.4238" r="15.3128" gradientTransform="matrix(0.4761 0 0 -0.4761 -144.0873 108.8576)" gradientUnits="userSpaceOnUse">
					<stop  offset="0" style="stop-color:#FFE9B3"/>
					<stop  offset="0.3559" style="stop-color:#F9BF2C"/>
					<stop  offset="0.4828" style="stop-color:#F1B226"/>
					<stop  offset="0.7195" style="stop-color:#DA8E16"/>
					<stop  offset="1" style="stop-color:#BB5D00"/>
				</radialGradient>
				<path class="st27" d="M17.579,57.365v3.187c0.107,0.012,0.213,0.025,0.319,0.039v-3.187
					C17.792,57.391,17.686,57.377,17.579,57.365z"/>
				
					<radialGradient id="SVGID_8_" cx="351.0874" cy="99.4238" r="15.3141" gradientTransform="matrix(0.4761 0 0 -0.4761 -144.0873 108.8576)" gradientUnits="userSpaceOnUse">
					<stop  offset="0" style="stop-color:#FFE9B3"/>
					<stop  offset="0.3559" style="stop-color:#F9BF2C"/>
					<stop  offset="0.4828" style="stop-color:#F1B226"/>
					<stop  offset="0.7195" style="stop-color:#DA8E16"/>
					<stop  offset="1" style="stop-color:#BB5D00"/>
				</radialGradient>
				<path class="st28" d="M22.664,59.08v3.187c0.357,0.328,0.553,0.684,0.553,1.057v-3.187
					C23.217,59.764,23.021,59.407,22.664,59.08z"/>
				
					<radialGradient id="SVGID_9_" cx="351.0873" cy="99.4238" r="15.3139" gradientTransform="matrix(0.4761 0 0 -0.4761 -144.0873 108.8576)" gradientUnits="userSpaceOnUse">
					<stop  offset="0" style="stop-color:#FFE9B3"/>
					<stop  offset="0.3559" style="stop-color:#F9BF2C"/>
					<stop  offset="0.4828" style="stop-color:#F1B226"/>
					<stop  offset="0.7195" style="stop-color:#DA8E16"/>
					<stop  offset="1" style="stop-color:#BB5D00"/>
				</radialGradient>
				<path class="st29" d="M21.001,58.139v3.187c0.528,0.2,0.977,0.428,1.33,0.676v-3.187C21.978,58.566,21.529,58.339,21.001,58.139
					z"/>
				
					<radialGradient id="SVGID_10_" cx="351.0875" cy="99.4238" r="15.3144" gradientTransform="matrix(0.4761 0 0 -0.4761 -144.0873 108.8576)" gradientUnits="userSpaceOnUse">
					<stop  offset="0" style="stop-color:#FFE9B3"/>
					<stop  offset="0.3559" style="stop-color:#F9BF2C"/>
					<stop  offset="0.4828" style="stop-color:#F1B226"/>
					<stop  offset="0.7195" style="stop-color:#DA8E16"/>
					<stop  offset="1" style="stop-color:#BB5D00"/>
				</radialGradient>
				<path class="st30" d="M19.449,57.68v3.187c0.437,0.099,0.845,0.213,1.219,0.34V58.02C20.294,57.893,19.886,57.779,19.449,57.68z
					"/>
			</g>
			<g>
				
					<radialGradient id="SVGID_11_" cx="332.1121" cy="104.6624" r="15.6151" gradientTransform="matrix(0.4761 0 0 -0.4761 -144.0873 108.8576)" gradientUnits="userSpaceOnUse">
					<stop  offset="0" style="stop-color:#B3D796"/>
					<stop  offset="0.5858" style="stop-color:#40B15D"/>
					<stop  offset="0.6792" style="stop-color:#3AAC59"/>
					<stop  offset="0.7981" style="stop-color:#2B9E4F"/>
					<stop  offset="0.9302" style="stop-color:#11863E"/>
					<stop  offset="1" style="stop-color:#007733"/>
				</radialGradient>
				<path class="st31" d="M7.588,59.047v3.187c0.128-0.114,0.277-0.224,0.443-0.33v-3.187C7.866,58.823,7.717,58.933,7.588,59.047z"
					/>
				
					<radialGradient id="SVGID_12_" cx="332.1125" cy="104.6623" r="15.6154" gradientTransform="matrix(0.4761 0 0 -0.4761 -144.0873 108.8576)" gradientUnits="userSpaceOnUse">
					<stop  offset="0" style="stop-color:#B3D796"/>
					<stop  offset="0.5858" style="stop-color:#40B15D"/>
					<stop  offset="0.6792" style="stop-color:#3AAC59"/>
					<stop  offset="0.7981" style="stop-color:#2B9E4F"/>
					<stop  offset="0.9302" style="stop-color:#11863E"/>
					<stop  offset="1" style="stop-color:#007733"/>
				</radialGradient>
				<path class="st32" d="M7,60.137v3.187c0-0.251,0.09-0.494,0.256-0.726v-3.187C7.09,59.643,7,59.886,7,60.137z"/>
				
					<radialGradient id="SVGID_13_" cx="332.112" cy="104.6623" r="15.615" gradientTransform="matrix(0.4761 0 0 -0.4761 -144.0873 108.8576)" gradientUnits="userSpaceOnUse">
					<stop  offset="0" style="stop-color:#B3D796"/>
					<stop  offset="0.5858" style="stop-color:#40B15D"/>
					<stop  offset="0.6792" style="stop-color:#3AAC59"/>
					<stop  offset="0.7981" style="stop-color:#2B9E4F"/>
					<stop  offset="0.9302" style="stop-color:#11863E"/>
					<stop  offset="1" style="stop-color:#007733"/>
				</radialGradient>
				<path class="st33" d="M14.54,58.707l-2.495-1.802c-0.102-0.074-0.244-0.001-0.244,0.125v0.453
					c-0.188,0.03-0.374,0.062-0.554,0.097v3.187c0.18-0.035,0.366-0.067,0.554-0.097v0.347c0,0.132,0.156,0.203,0.256,0.116
					l2.495-2.184C14.625,58.882,14.62,58.765,14.54,58.707z"/>
				
					<radialGradient id="SVGID_14_" cx="332.1118" cy="104.6623" r="15.6149" gradientTransform="matrix(0.4761 0 0 -0.4761 -144.0873 108.8576)" gradientUnits="userSpaceOnUse">
					<stop  offset="0" style="stop-color:#B3D796"/>
					<stop  offset="0.5858" style="stop-color:#40B15D"/>
					<stop  offset="0.6792" style="stop-color:#3AAC59"/>
					<stop  offset="0.7981" style="stop-color:#2B9E4F"/>
					<stop  offset="0.9302" style="stop-color:#11863E"/>
					<stop  offset="1" style="stop-color:#007733"/>
				</radialGradient>
				<path class="st34" d="M9.473,58.046v3.187c0.436-0.151,0.919-0.285,1.441-0.399v-3.187C10.392,57.761,9.909,57.895,9.473,58.046
					z"/>
				
					<radialGradient id="SVGID_15_" cx="332.1116" cy="104.6624" r="15.6146" gradientTransform="matrix(0.4761 0 0 -0.4761 -144.0873 108.8576)" gradientUnits="userSpaceOnUse">
					<stop  offset="0" style="stop-color:#B3D796"/>
					<stop  offset="0.5858" style="stop-color:#40B15D"/>
					<stop  offset="0.6792" style="stop-color:#3AAC59"/>
					<stop  offset="0.7981" style="stop-color:#2B9E4F"/>
					<stop  offset="0.9302" style="stop-color:#11863E"/>
					<stop  offset="1" style="stop-color:#007733"/>
				</radialGradient>
				<path class="st35" d="M8.364,58.522v3.187c0.233-0.125,0.493-0.243,0.776-0.354v-3.187C8.857,58.279,8.598,58.397,8.364,58.522z
					"/>
			</g>
		</g>
	</g>
</g>
<g>
	<g>
		<path class="st36" d="M70.381,67.833"/>
		<polygon class="st37" points="124.04,55.974 120.46,55.974 121.044,53.797 124.625,53.797 125.363,51.088 124.061,51.088 
			124.313,50.047 121.507,50.047 121.256,51.088 119.754,51.088 117.767,58.62 121.376,58.62 120.825,60.676 117.254,60.676 
			116.507,63.34 117.97,63.34 117.324,65.934 120.131,65.934 120.782,63.34 122.078,63.34 		"/>
		<g>
			<path class="st38" d="M130.227,51.073h-4.168l-0.737,2.724h2.219l-0.963,2.177h-1.758l-0.455,3.808l-1.569,3.16
				c-0.134,0.213-0.385,0.348-0.621,0.415l-0.602,2.641h0.402c1.065,0,1.917-0.433,2.555-1.299l0.025,0.361
				c0.358,0.722,1.211,1.086,2.378,1.086l0.645-2.385h-0.338c-0.225,0-0.374-0.054-0.446-0.17l-0.161-3.357l2.857-6.457
				L130.227,51.073z"/>
			<path class="st38" d="M111.827,63.768c-0.124,0.548,0.002,1.107,0.341,1.535c0.343,0.424,0.857,0.667,1.421,0.667h2.271
				l0.647-2.653c0,0-0.584,0-1.006,0c-0.422,0-0.551-0.07-0.408-0.586c0.079-0.28,0.634-2.32,1.12-4.089h0.815l0.72-2.686h-0.802
				h-0.056l0.578-2.17h0.806l0.72-2.686h-0.809l0.28-1.053h-2.932l-0.278,1.053h-3.069l-0.727,2.686h3.076l-0.58,2.17h-3.049
				l-0.73,2.686h3.047L111.827,63.768z"/>
			<path class="st38" d="M110.177,66.145c0.23-0.88,1.784-6.634,1.784-6.634h-2.013l-2.119,7.817
				c-0.12,0.545,0.008,1.106,0.348,1.528c0.342,0.424,0.858,0.669,1.418,0.669h16.451l0.72-2.679c0,0-15.557,0-16.172,0
				C110.116,66.847,110.115,66.39,110.177,66.145z"/>
		</g>
		<g>
			<polygon class="st38" points="75.396,59.06 67.241,59.06 66.525,61.748 72.887,61.748 			"/>
			<path class="st38" d="M86.049,55.16c-0.211,0-0.359-0.186-0.446-0.559l-0.942-4.296H71.726l-0.717,2.688h10.525l0.699,3.342
				c0.263,1.008,0.85,1.51,1.766,1.51h2.427l0.717-2.684H86.049z"/>
			<path class="st38" d="M72.36,56.136l1.658-2.191h-3.483l-0.592,0.657c-0.309,0.413-0.677,0.624-1.105,0.639h-0.586l-0.692,2.529
				h1.994C70.645,57.769,71.578,57.222,72.36,56.136z"/>
			<path class="st38" d="M78.498,61.748h3.525l-1.231,4.614c-0.089,0.332-0.299,0.498-0.63,0.498H77.13l-2.51,2.688h6.695
				c1.287,0,2.109-0.651,2.47-1.952l2.279-8.535h-5.075L78.498,61.748z"/>
		</g>
		<path class="st37" d="M76.237,59.057c0,0-5.428,5.804-6.03,6.466c-0.496,0.545-0.932,0.476-1.361-0.036
			c-0.43-0.509-2.541-3.018-2.541-3.018l-0.916,3.476l2.674,3.068c0.355,0.408,0.864,0.646,1.402,0.653c0.008,0,0.018,0,0.027,0
			c0.524,0,1.03-0.22,1.392-0.613l9.278-9.996H76.237z"/>
		<g>
			<path class="st38" d="M87.689,66.445c-0.192,0.368-0.482,0.563-0.87,0.575h-0.501l-0.679,2.527h1.939
				c1.046,0,1.843-0.478,2.391-1.434l1.54-2.785h-3.244L87.689,66.445z"/>
			<path class="st38" d="M98.074,61.928H97.31l2.151-8.063h0.725l0.716-2.686h-0.725l0.283-1.055h-3.163l-0.28,1.055h-2.409
				l0.28-1.055h-3.162l-0.282,1.055h-0.736l-0.717,2.686h0.736l-2.151,8.063h-0.894l-0.719,2.686h10.395L98.074,61.928z
				 M95.538,58.533l-0.906,3.386h-3.393l0.907-3.386c0.251-0.934,1.213-1.695,2.149-1.695
				C95.232,56.838,95.787,57.599,95.538,58.533z M96.34,54.935c-0.228,0.848-1.099,1.537-1.948,1.537
				c-0.846,0-1.35-0.689-1.125-1.537c0.229-0.848,1.099-1.535,1.948-1.535C96.064,53.4,96.566,54.087,96.34,54.935z"/>
			<path class="st38" d="M102.679,69.547c1.287,0,2.11-0.651,2.471-1.952l4.592-17.211h-7.938l-4.308,16.138
				c-0.066,0.251-0.217,0.419-0.45,0.498h-0.675c-0.413,0-0.602-0.161-0.569-0.478l0.005-1.214h-3.244l-0.051,2.428
				c-0.028,1.194,0.456,1.791,1.452,1.791h4.018c1.289,0,2.111-0.651,2.472-1.952l0.988-3.701h1.453l-1.464,5.631L102.679,69.547z
				 M105.381,58.533l-0.906,3.386h-3.392l0.906-3.386c0.25-0.934,1.213-1.695,2.148-1.695
				C105.073,56.838,105.631,57.599,105.381,58.533z M104.236,56.472c-0.848,0-1.351-0.689-1.124-1.537
				c0.229-0.848,1.097-1.535,1.947-1.535c0.847,0,1.351,0.687,1.124,1.535C105.956,55.783,105.084,56.472,104.236,56.472z"/>
		</g>
	</g>
	<g>
		<path class="st38" d="M133.639,50.308c0.083-0.197,0.217-0.296,0.397-0.296h0.87c0.197,0,0.272,0.058,0.234,0.168
			c-0.061,0.121-0.004,0.182,0.164,0.182h6.699c0.196,0,0.293,0.094,0.293,0.278v0.503c0,0.182-0.097,0.274-0.293,0.274h-7.079
			c-0.154,0-0.261,0.047-0.317,0.137c-0.077,0.094-0.158,0.171-0.243,0.242c-0.129,0.078-0.104,0.115,0.079,0.115h0.336
			c0.194,0,0.29,0.096,0.29,0.278v0.476c0,0.155,0.083,0.231,0.246,0.231h0.529c0.161,0,0.243-0.076,0.243-0.231V52.19
			c0-0.182,0.098-0.278,0.29-0.278h0.686c0.193,0,0.292,0.096,0.292,0.278v0.476c0,0.155,0.08,0.231,0.239,0.231h0.496
			c0.161,0,0.244-0.076,0.244-0.231V52.19c0-0.182,0.091-0.278,0.287-0.278h0.688c0.195,0,0.29,0.096,0.29,0.278v0.476
			c0,0.155,0.08,0.231,0.244,0.231h0.532c0.159,0,0.243-0.076,0.243-0.231v-0.514c0-0.184,0.096-0.274,0.29-0.274h0.688
			c0.191,0,0.29,0.09,0.29,0.274v0.514c0,0.155,0.071,0.231,0.222,0.231c0.149,0,0.223,0.09,0.223,0.272v0.511
			c0,0.179-0.071,0.272-0.214,0.272c-0.154,0-0.231,0.078-0.231,0.229v0.882c0,0.152,0.082,0.229,0.24,0.229
			c0.161,0,0.242,0.09,0.242,0.274v0.496c0,0.186-0.097,0.274-0.29,0.274h-8.595c-0.192,0-0.292-0.088-0.292-0.274v-0.496
			c0-0.184,0.102-0.274,0.299-0.274c0.21,0,0.31-0.078,0.31-0.229v-0.882c0-0.151-0.091-0.229-0.269-0.229
			c-0.176,0-0.262-0.094-0.262-0.272v-0.511c0-0.182,0.087-0.272,0.262-0.272c0.178,0,0.269-0.076,0.269-0.231v-0.523
			c0-0.153-0.091-0.231-0.269-0.231c-0.176,0-0.28-0.09-0.32-0.272l-0.088-0.471c-0.038-0.182-0.025-0.272,0.042-0.272
			c0.248-0.069,0.387-0.209,0.402-0.422C133.603,50.418,133.622,50.363,133.639,50.308z M133.561,57.237
			c0.061-0.189,0.191-0.285,0.375-0.285h0.858c0.19,0,0.262,0.094,0.202,0.276l-0.216,0.64c-0.076,0.346-0.189,0.59-0.336,0.736
			c-0.195,0.175-0.49,0.245-0.883,0.211c-0.194,0-0.308-0.092-0.348-0.278l-0.088-0.454c-0.038-0.184-0.023-0.281,0.05-0.285
			C133.404,57.702,133.535,57.518,133.561,57.237z M136.088,54.19c0-0.159-0.077-0.238-0.233-0.238h-0.539
			c-0.163,0-0.246,0.078-0.246,0.229v0.882c0,0.152,0.083,0.229,0.246,0.229h0.529c0.161,0,0.243-0.078,0.243-0.229V54.19z
			 M135.739,57.237c-0.046-0.195,0.017-0.294,0.195-0.294h0.879c0.194,0,0.316,0.09,0.359,0.272l0.077,0.28
			c0.018,0.144,0.117,0.244,0.29,0.292c0.091,0.007,0.137,0.099,0.137,0.285v0.465c0,0.186-0.098,0.278-0.29,0.278h-0.688
			c-0.312-0.036-0.529-0.206-0.658-0.507C135.964,58.119,135.863,57.763,135.739,57.237z M138.336,54.19
			c0-0.159-0.081-0.238-0.238-0.238h-0.502c-0.159,0-0.239,0.078-0.239,0.229v0.882c0,0.152,0.08,0.229,0.239,0.229h0.496
			c0.161,0,0.244-0.078,0.244-0.229V54.19z M138.119,57.264c-0.061-0.213-0.011-0.321,0.157-0.321h0.922
			c0.191,0,0.313,0.09,0.368,0.272l0.074,0.28c0.076,0.195,0.184,0.292,0.321,0.292c0.103,0.007,0.158,0.099,0.158,0.285v0.465
			c0,0.186-0.1,0.278-0.295,0.278h-0.745c-0.225-0.031-0.409-0.144-0.549-0.339c-0.105-0.161-0.193-0.404-0.274-0.734
			L138.119,57.264z M140.619,54.19c0-0.159-0.08-0.238-0.233-0.238h-0.542c-0.163,0-0.244,0.078-0.244,0.229v0.882
			c0,0.152,0.08,0.229,0.244,0.229h0.532c0.159,0,0.243-0.078,0.243-0.229V54.19z M140.511,57.199
			c-0.048-0.186,0.018-0.285,0.204-0.285h0.883c0.191,0,0.313,0.096,0.367,0.274c0.046,0.332,0.154,0.532,0.332,0.599
			c0.069,0.013,0.104,0.112,0.104,0.296v0.454c0,0.186-0.097,0.278-0.29,0.278h-0.639c-0.172-0.007-0.362-0.123-0.556-0.348
			c-0.101-0.198-0.187-0.442-0.261-0.736C140.6,57.554,140.551,57.375,140.511,57.199z"/>
		<path class="st38" d="M147.981,50.287c0-0.193,0.096-0.287,0.281-0.287h0.879c0.192,0,0.291,0.092,0.291,0.276v0.422
			c0,0.153,0.078,0.231,0.242,0.231h3.766c0.191,0,0.29,0.092,0.29,0.274v0.532c0,0.184-0.098,0.276-0.29,0.276h-3.766
			c-0.164,0-0.242,0.078-0.242,0.229v1.017c0,0.153,0.078,0.233,0.242,0.233h4.036c0.193,0,0.29,0.088,0.29,0.272v0.543
			c0,0.184-0.097,0.274-0.29,0.274h-4.036c-0.164,0-0.242,0.078-0.242,0.229v3.752c0,0.186-0.099,0.276-0.291,0.276h-0.87
			c-0.193,0-0.29-0.09-0.29-0.276v-3.752c0-0.151-0.083-0.229-0.242-0.229h-2.731c-0.192,0-0.292-0.09-0.292-0.274v-0.543
			c0-0.184,0.1-0.272,0.292-0.272h2.731c0.159,0,0.242-0.079,0.242-0.233V50.287z M150.701,55.617
			c-0.059-0.197,0.005-0.296,0.192-0.296h0.916c0.196,0,0.321,0.096,0.374,0.278l0.383,1.376c0.021,0.22,0.144,0.366,0.369,0.438
			h0.696c0.196,0,0.292,0.092,0.292,0.278v0.541c0,0.186-0.097,0.274-0.292,0.274h-1.596c-0.473-0.11-0.735-0.402-0.793-0.871
			L150.701,55.617z"/>
		<path class="st37" d="M133.377,65.534c0-0.197,0.091-0.296,0.271-0.296h8.064c0.195,0,0.29,0.094,0.29,0.276v3.741
			c0,0.393-0.245,0.626-0.736,0.703h-1.536c-0.194,0-0.308-0.094-0.341-0.281l-0.078-0.46c-0.041-0.233,0.038-0.352,0.234-0.352
			c0.27,0.005,0.55,0,0.841-0.02c0.14-0.087,0.198-0.233,0.163-0.437V66.56c0-0.155-0.08-0.231-0.239-0.231h-2.927
			c-0.154,0-0.281,0.092-0.387,0.278c-0.373,0.707-0.741,1.42-1.094,2.128l-0.397,0.741c-0.192,0.271-0.462,0.429-0.803,0.482
			h-1.152c-0.195,0-0.311-0.094-0.349-0.281l-0.076-0.46c-0.047-0.233,0.028-0.352,0.221-0.352c0.219,0.005,0.441,0,0.657-0.02
			c0.221-0.106,0.35-0.235,0.391-0.39l0.994-1.849c0.105-0.186,0.079-0.278-0.075-0.278h-1.647c-0.194,0-0.29-0.09-0.29-0.276
			V65.534z M134.035,63.221c0.167-0.242,0.345-0.363,0.538-0.363h0.942c0.194,0,0.244,0.096,0.147,0.278
			c-0.124,0.216-0.234,0.431-0.336,0.649c-0.099,0.256-0.312,0.469-0.642,0.63c-0.189,0.067-0.549,0.09-1.095,0.061
			c-0.19,0-0.308-0.09-0.347-0.276c-0.038-0.153-0.065-0.307-0.086-0.462c-0.039-0.184,0.035-0.276,0.222-0.276
			C133.648,63.517,133.868,63.438,134.035,63.221z M134.424,61.461c0-0.193,0.088-0.292,0.27-0.292h5.595
			c0.191,0,0.339,0.092,0.436,0.278c0.225,0.46,0.46,0.922,0.705,1.387c0.156,0.449,0.394,0.646,0.71,0.583
			c0.166,0,0.253,0.09,0.253,0.28v0.543c0,0.188-0.098,0.276-0.295,0.276c-0.617,0.051-1.057,0.005-1.317-0.133
			c-0.249-0.153-0.436-0.384-0.557-0.707l-0.601-1.192c-0.076-0.148-0.197-0.224-0.351-0.224h-4.558
			c-0.194,0-0.289-0.092-0.289-0.276V61.461z"/>
		<path class="st37" d="M145.258,61.378c0-0.168,0.087-0.247,0.269-0.247h0.826c0.193,0,0.29,0.078,0.29,0.236
			c0,0.166,0.08,0.249,0.24,0.249h0.843c0.164,0,0.243-0.083,0.243-0.249c0-0.159,0.099-0.236,0.293-0.236h0.802
			c0.191,0,0.289,0.078,0.289,0.236c0,0.166,0.052,0.249,0.158,0.249c0.101,0,0.152,0.096,0.152,0.278v0.539
			c0,0.182-0.049,0.276-0.145,0.276c-0.11,0-0.165,0.078-0.165,0.233v3.429c0,0.153,0.066,0.231,0.195,0.231
			c0.129,0,0.193,0.094,0.193,0.278v0.548c0,0.184-0.099,0.276-0.29,0.276h-4.338c-0.191,0-0.29-0.092-0.29-0.276v-0.548
			c0-0.184,0.071-0.278,0.211-0.278c0.151,0,0.225-0.078,0.225-0.231v-3.429c0-0.155-0.062-0.233-0.184-0.233
			c-0.115,0-0.175-0.094-0.175-0.276v-0.539c0-0.182,0.06-0.278,0.175-0.278C145.196,61.616,145.258,61.537,145.258,61.378z
			 M145.451,68.517c0.06-0.222,0.187-0.332,0.379-0.332h0.822c0.195,0,0.26,0.092,0.203,0.278l-0.308,1.015
			c-0.141,0.316-0.36,0.48-0.659,0.501c-0.192,0.018-0.385,0.023-0.58,0.018c-0.194,0-0.309-0.092-0.347-0.276l-0.097-0.474
			c-0.033-0.188,0.047-0.28,0.239-0.283C145.311,68.899,145.426,68.752,145.451,68.517z M147.969,62.942
			c0-0.155-0.079-0.233-0.243-0.233h-0.843c-0.16,0-0.24,0.078-0.24,0.233v0.218c0,0.155,0.08,0.233,0.24,0.233h0.843
			c0.164,0,0.243-0.078,0.243-0.233V62.942z M147.969,64.578c0-0.162-0.078-0.242-0.232-0.242h-0.855c-0.16,0-0.24,0.078-0.24,0.233
			v0.211c0,0.153,0.08,0.229,0.24,0.229h0.843c0.164,0,0.243-0.076,0.243-0.229V64.578z M147.969,66.298
			c0-0.224-0.073-0.334-0.225-0.334h-0.861c-0.16,0-0.24,0.076-0.24,0.233v0.173c0,0.153,0.08,0.231,0.24,0.231h0.843
			C147.89,66.602,147.969,66.499,147.969,66.298z M150.197,61.524c0-0.191,0.092-0.285,0.277-0.285h3.131
			c0.192,0,0.289,0.09,0.289,0.272v7.783c0.012,0.382-0.227,0.619-0.728,0.703h-0.52c-0.192,0-0.306-0.092-0.338-0.276
			c-0.039-0.153-0.067-0.312-0.087-0.462c-0.03-0.186-0.021-0.283,0.037-0.289c0.188-0.043,0.265-0.184,0.222-0.429v-0.943
			c0-0.151-0.077-0.229-0.238-0.229h-0.39c-0.163,0-0.239,0.078-0.239,0.229v1.688c-0.027,0.417-0.272,0.658-0.74,0.711h-2.186
			c-0.338-0.025-0.583-0.26-0.733-0.703l-0.215-0.832c-0.053-0.186,0.019-0.278,0.215-0.278h0.831c0.192,0,0.316,0.092,0.37,0.278
			c0.016,0.222,0.111,0.384,0.289,0.491c0.184,0.023,0.385,0.023,0.589,0c0.154-0.101,0.212-0.245,0.166-0.436V61.524z
			 M152.479,62.568c0-0.152-0.077-0.231-0.238-0.231h-0.39c-0.163,0-0.239,0.079-0.239,0.231v0.961c0,0.155,0.076,0.233,0.239,0.233
			h0.39c0.161,0,0.238-0.077,0.238-0.233V62.568z M152.479,65.104c0-0.166-0.07-0.251-0.222-0.251h-0.406
			c-0.163,0-0.239,0.078-0.239,0.231v0.965c0,0.155,0.076,0.229,0.239,0.229h0.39c0.161,0,0.238-0.074,0.238-0.229V65.104z"/>
	</g>
</g>
</svg>
